<?xml version="1.0" encoding="UTF-8"?>
<svg version="1.1" xmlns="http://www.w3.org/2000/svg" width="192" height="192">
<path d="M0 0 C63.36 0 126.72 0 192 0 C192 63.36 192 126.72 192 192 C128.64 192 65.28 192 0 192 C0 128.64 0 65.28 0 0 Z " fill="#F6F3F3" transform="translate(0,0)"/>
<path d="M0 0 C3.6598997 1.21996657 4.07345941 2.59864843 5.75341797 5.91479492 C6.10291504 6.6235376 6.45241211 7.33228027 6.8125 8.0625 C11.28505877 16.83958453 16.20267822 25.3202836 21.21411133 33.79907227 C22.34176617 35.71159379 23.46324272 37.62777793 24.57714844 39.54833984 C25.71395767 41.50713159 26.87286051 43.45309538 28.0390625 45.39453125 C29 48 29 48 28.25708008 50.30151367 C26.90339091 53.20738401 25.42034441 55.98758436 23.84765625 58.78125 C23.23599609 59.87050781 22.62433594 60.95976563 21.99414062 62.08203125 C21.35669922 63.20996094 20.71925781 64.33789062 20.0625 65.5 C19.42892578 66.62792969 18.79535156 67.75585938 18.14257812 68.91796875 C13.33953137 77.45335152 13.33953137 77.45335152 11.32666016 80.6940918 C9.79974055 83.34807701 9.51497317 85.27540241 9.3125 88.3125 C9.24675781 89.19550781 9.18101563 90.07851562 9.11328125 90.98828125 C9.07589844 91.65214844 9.03851563 92.31601563 9 93 C11.64 93 14.28 93 17 93 C17 94.65 17 96.3 17 98 C18.18440674 97.93079346 19.36881348 97.86158691 20.58911133 97.7902832 C53.2976702 96.10322892 53.2976702 96.10322892 60.97314453 100.83154297 C64.95844787 105.19055564 66.8982407 110.17203094 68.38183594 115.83007812 C69.14948681 118.52473886 70.48497456 120.65942178 72 123 C72 123.66 72 124.32 72 125 C74.97 125 77.94 125 81 125 C81 127.64 81 130.28 81 133 C83.64 133 86.28 133 89 133 C89 140.92 89 148.84 89 157 C86.36 157 83.72 157 81 157 C81 159.64 81 162.28 81 165 C80.34 165 79.68 165 79 165 C79 172.26 79 179.52 79 187 C77.35 187 75.7 187 74 187 C73 186 73 186 72.90234375 183.05859375 C72.91974609 181.26615234 72.91974609 181.26615234 72.9375 179.4375 C72.94652344 178.23996094 72.95554688 177.04242188 72.96484375 175.80859375 C72.98224609 174.41833984 72.98224609 174.41833984 73 173 C72.01 173 71.02 173 70 173 C70 177.62 70 182.24 70 187 C68.35 186.67 66.7 186.34 65 186 C65 183.03 65 180.06 65 177 C62.36 177 59.72 177 57 177 C57 180.96 57 184.92 57 189 C12.12 189 -32.76 189 -79 189 C-79 186.36 -79 183.72 -79 181 C-81.64 181 -84.28 181 -87 181 C-87 178.36 -87 175.72 -87 173 C-84.36 173 -81.72 173 -79 173 C-79 167.72 -79 162.44 -79 157 C-81.64 157 -84.28 157 -87 157 C-87 154.36 -87 151.72 -87 149 C-85.68 149 -84.36 149 -83 149 C-82.82803101 147.90558594 -82.82803101 147.90558594 -82.65258789 146.7890625 C-81.98118008 143.9195665 -81.03079836 141.91623286 -79.55859375 139.375 C-79.06117676 138.50987793 -78.56375977 137.64475586 -78.05126953 136.75341797 C-77.51872559 135.84479004 -76.98618164 134.93616211 -76.4375 134 C-75.89464355 133.06172363 -75.35178711 132.12344727 -74.79248047 131.15673828 C-71.27175573 125.09691901 -67.67018902 119.09687312 -63.9140625 113.1796875 C-61.12244589 108.54218562 -58.59198138 103.75196586 -56 99 C-39.83 98.67 -23.66 98.34 -7 98 C-7 96.35 -7 94.7 -7 93 C-9.64 93 -12.28 93 -15 93 C-15 90.36 -15 87.72 -15 85 C-12.69 85 -10.38 85 -8 85 C-9.92758213 80.33192454 -12.04293608 75.9516717 -14.5390625 71.55078125 C-15.20838031 70.36135456 -15.87764975 69.17190065 -16.546875 67.98242188 C-17.59002747 66.13841818 -18.63475223 64.29532083 -19.68066406 62.45288086 C-20.69994157 60.65439377 -21.71347804 58.85276202 -22.7265625 57.05078125 C-23.63269287 55.45230347 -23.63269287 55.45230347 -24.55712891 53.8215332 C-26.71335075 49.60504322 -26.71335075 49.60504322 -27 47 C-25.79029793 44.52490624 -24.52952384 42.31754538 -23.0625 40 C-22.14599526 38.50018759 -21.2321367 36.99875633 -20.3203125 35.49609375 C-19.80243164 34.64644043 -19.28455078 33.79678711 -18.75097656 32.92138672 C-15.59414794 27.65443031 -12.56636939 22.31321894 -9.52804565 16.97729492 C-8.4442772 15.0743995 -7.358262 13.1728021 -6.27172852 11.27148438 C-3.0316239 5.69195554 -3.0316239 5.69195554 0 0 Z " fill="#F2D6D7" transform="translate(95,3)"/>
<path d="M0 0 C18.48 0 36.96 0 56 0 C54.4615955 3.84601125 52.88289672 7.17406259 50.875 10.76171875 C50.2550415 11.87313232 49.63508301 12.9845459 48.99633789 14.12963867 C48.33094187 15.31562047 47.66549497 16.50157373 47 17.6875 C46.32318768 18.89867757 45.64667572 20.11002302 44.97045898 21.3215332 C43.61952027 23.74115844 42.26715206 26.1599752 40.91357422 28.578125 C38.28658731 33.27573261 35.67374481 37.98113011 33.0625 42.6875 C32.26181041 44.12895717 31.46103991 45.5703694 30.66015625 47.01171875 C30.11230469 47.99785156 29.56445312 48.98398438 29 50 C27.68 50 26.36 50 25 50 C25 55.28 25 60.56 25 66 C26.98 65.505 26.98 65.505 29 65 C35.31329114 64.55696203 35.31329114 64.55696203 37.9375 66.25 C39 68 39 68 39 72 C37.68 72 36.36 72 35 72 C34.67 71.01 34.34 70.02 34 69 C33.01 69 32.02 69 31 69 C31.38348427 71.50330006 31.66841161 72.70579657 33.59375 74.4140625 C34.2228125 74.81367188 34.851875 75.21328125 35.5 75.625 C38.90936556 77.81873112 38.90936556 77.81873112 40 80 C40.33 78.02 40.66 76.04 41 74 C41.66 74 42.32 74 43 74 C43 71.03 43 68.06 43 65 C44.65 65 46.3 65 48 65 C48.495 73.91 48.495 73.91 49 83 C50.65 83 52.3 83 54 83 C54.33 77.06 54.66 71.12 55 65 C56.65 65 58.3 65 60 65 C60 70.61 60 76.22 60 82 C60.99 82 61.98 82 63 82 C63 76.39 63 70.78 63 65 C75.85714286 64.85714286 75.85714286 64.85714286 81 66 C81 63.36 81 60.72 81 58 C83.64 58 86.28 58 89 58 C89 60.64 89 63.28 89 66 C88.34 66 87.68 66 87 66 C87 73.26 87 80.52 87 88 C85.35 87.67 83.7 87.34 82 87 C81.505 88.485 81.505 88.485 81 90 C46.68 90 12.36 90 -23 90 C-23 87.36 -23 84.72 -23 82 C-25.64 82 -28.28 82 -31 82 C-31 79.36 -31 76.72 -31 74 C-28.36 74 -25.72 74 -23 74 C-23 68.72 -23 63.44 -23 58 C-25.64 58 -28.28 58 -31 58 C-31 55.36 -31 52.72 -31 50 C-29.68 50 -28.36 50 -27 50 C-26.885354 49.27039063 -26.77070801 48.54078125 -26.65258789 47.7890625 C-25.98118008 44.9195665 -25.03079836 42.91623286 -23.55859375 40.375 C-23.06117676 39.50987793 -22.56375977 38.64475586 -22.05126953 37.75341797 C-21.51872559 36.84479004 -20.98618164 35.93616211 -20.4375 35 C-19.62321533 33.59258545 -19.62321533 33.59258545 -18.79248047 32.15673828 C-15.27175573 26.09691901 -11.67018902 20.09687312 -7.9140625 14.1796875 C-5.12244589 9.54218562 -2.59198138 4.75196586 0 0 Z " fill="#EEEEEE" transform="translate(39,102)"/>
<path d="M0 0 C3.6598997 1.21996657 4.07345941 2.59864843 5.75341797 5.91479492 C6.10291504 6.6235376 6.45241211 7.33228027 6.8125 8.0625 C11.28505877 16.83958453 16.20267822 25.3202836 21.21411133 33.79907227 C22.34176617 35.71159379 23.46324272 37.62777793 24.57714844 39.54833984 C25.71395767 41.50713159 26.87286051 43.45309538 28.0390625 45.39453125 C29 48 29 48 28.23950195 50.33227539 C26.97302007 53.0580677 25.60169772 55.6689428 24.12890625 58.2890625 C23.27474121 59.81285522 23.27474121 59.81285522 22.40332031 61.36743164 C21.79584961 62.4424292 21.18837891 63.51742676 20.5625 64.625 C19.94084961 65.7277124 19.31919922 66.8304248 18.67871094 67.96655273 C17.40565642 70.22109648 16.13075244 72.4745969 14.85400391 74.72705078 C13.66551541 76.82513832 12.48001872 78.9249251 11.29833984 81.02685547 C9.78988533 83.70983183 8.27175541 86.3870513 6.75 89.0625 C6.2969751 89.87090332 5.8439502 90.67930664 5.37719727 91.51220703 C4.30854918 93.37539589 3.16247317 95.19386114 2 97 C1.34 97 0.68 97 0 97 C-0.87398437 95.41638672 -0.87398437 95.41638672 -1.765625 93.80078125 C-6.56175834 85.12867411 -11.40433316 76.48424387 -16.3125 67.875 C-17.04871582 66.58009644 -17.04871582 66.58009644 -17.79980469 65.2590332 C-18.27450195 64.42847412 -18.74919922 63.59791504 -19.23828125 62.7421875 C-19.69412598 61.94393555 -20.1499707 61.14568359 -20.61962891 60.32324219 C-22.35893839 57.39588651 -24.25310869 54.58383883 -26.20385742 51.79345703 C-27.27202803 49.38720703 -26.93469422 48.44153978 -26 46 C-25.13410104 44.26872698 -24.21465429 42.56383982 -23.26171875 40.87890625 C-22.4102124 39.36574829 -22.4102124 39.36574829 -21.54150391 37.82202148 C-20.92968262 36.74637939 -20.31786133 35.6707373 -19.6875 34.5625 C-19.06536621 33.46043213 -18.44323242 32.35836426 -17.80224609 31.22290039 C-15.87412132 27.81184747 -13.9384537 24.40519243 -12 21 C-11.39397949 19.93491211 -10.78795898 18.86982422 -10.16357422 17.77246094 C-6.78645387 11.8421365 -3.39909886 5.91775373 0 0 Z " fill="#FD0303" transform="translate(95,3)"/>
<path d="M0 0 C7.77124938 -0.48421142 15.538596 -0.81534271 23.3215332 -1.04370117 C25.96396094 -1.13891069 28.60539606 -1.26834113 31.24438477 -1.43334961 C52.47177621 -2.72677489 52.47177621 -2.72677489 58.17831421 1.6835022 C61.88638919 6.10025404 63.98712421 11.14156953 66.00332642 16.49783325 C67.48116021 20.20796126 69.49801926 23.51081259 71.57421875 26.91015625 C72.27131159 28.11307856 72.96474795 29.3181281 73.65429688 30.52539062 C74.68987048 32.32833353 75.7268033 34.13040849 76.76831055 35.92993164 C77.81183522 37.73353999 78.84986319 39.54020789 79.88671875 41.34765625 C80.48701904 42.38929932 81.08731934 43.43094238 81.70581055 44.50415039 C83 47 83 47 83 49 C64.52 49 46.04 49 27 49 C20.565 37.615 20.565 37.615 14 26 C11.98132813 22.44992188 11.98132813 22.44992188 9.921875 18.828125 C9.38175781 17.87808594 8.84164062 16.92804688 8.28515625 15.94921875 C7.21668847 14.07056421 6.14622586 12.1930434 5.07421875 10.31640625 C4.28724609 8.93001953 4.28724609 8.93001953 3.484375 7.515625 C3.02772461 6.71415039 2.57107422 5.91267578 2.10058594 5.08691406 C1 3 1 3 0 0 Z " fill="#FD0404" transform="translate(97,102)"/>
<path d="M0 0 C18.48 0 36.96 0 56 0 C54.46043831 3.84890422 52.87546331 7.19953023 50.875 10.796875 C50.24980469 11.92222656 49.62460938 13.04757813 48.98046875 14.20703125 C48.49006104 15.08415771 48.49006104 15.08415771 47.98974609 15.97900391 C47.02718104 17.70136378 46.07014894 19.42681217 45.11328125 21.15234375 C44.14176764 22.89633876 43.16907902 24.64030448 42.14755249 26.35548401 C40.16296858 29.71597716 38.6008888 32.96849741 37.27587891 36.64428711 C35.32301295 41.5387282 33.38310986 45.86417381 29 49 C19.84783809 51.81713678 9.79433371 50.58773949 0.375 50.0625 C-2.27710015 49.96748707 -4.92904018 49.8996181 -7.58203125 49.83007812 C-14.06044211 49.64334652 -20.52900352 49.35957441 -27 49 C-24.85251305 43.53958288 -22.12909881 38.51699035 -19.3125 33.375 C-18.77157715 32.38459717 -18.2306543 31.39419434 -17.67333984 30.3737793 C-14.01633427 23.72622155 -10.1320507 17.36335808 -6 11 C-4.02 7.37 -2.04 3.74 0 0 Z " fill="#FD0404" transform="translate(39,102)"/>
<path d="M0 0 C2.64 0 5.28 0 8 0 C8 2.64 8 5.28 8 8 C10.64 8 13.28 8 16 8 C16 10.64 16 13.28 16 16 C18.64 16 21.28 16 24 16 C24 18.64 24 21.28 24 24 C21.36 24 18.72 24 16 24 C16 26.64 16 29.28 16 32 C18.64 32 21.28 32 24 32 C24 34.64 24 37.28 24 40 C26.64 40 29.28 40 32 40 C32 42.64 32 45.28 32 48 C26.06 47.67 20.12 47.34 14 47 C14 52.61 14 58.22 14 64 C13.01 64 12.02 64 11 64 C11 58.39 11 52.78 11 47 C9.35 47 7.7 47 6 47 C6.01160156 48.28777344 6.02320312 49.57554687 6.03515625 50.90234375 C6.0445327 52.58072772 6.05363305 54.25911326 6.0625 55.9375 C6.07087891 56.78763672 6.07925781 57.63777344 6.08789062 58.51367188 C6.09272461 59.72700195 6.09272461 59.72700195 6.09765625 60.96484375 C6.10551147 62.08814087 6.10551147 62.08814087 6.11352539 63.23413086 C6 65 6 65 5 66 C2.5 66.125 2.5 66.125 0 66 C-1 65 -1 65 -1.11352539 63.23413086 C-1.10828857 62.48526611 -1.10305176 61.73640137 -1.09765625 60.96484375 C-1.09443359 60.15595703 -1.09121094 59.34707031 -1.08789062 58.51367188 C-1.07951172 57.66353516 -1.07113281 56.81339844 -1.0625 55.9375 C-1.05798828 55.08349609 -1.05347656 54.22949219 -1.04882812 53.34960938 C-1.03700373 51.23304337 -1.01906769 49.11651315 -1 47 C-2.65 47 -4.3 47 -6 47 C-6 49.97 -6 52.94 -6 56 C-6.66 56 -7.32 56 -8 56 C-8.33 59.3 -8.66 62.6 -9 66 C-9.33 66 -9.66 66 -10 66 C-10.185625 64.948125 -10.37125 63.89625 -10.5625 62.8125 C-11.8720195 58.04002892 -14.90732121 56.50108148 -19 54 C-18.67 52.68 -18.34 51.36 -18 50 C-16.68 50.33 -15.36 50.66 -14 51 C-14 51.99 -14 52.98 -14 54 C-12.68 54 -11.36 54 -10 54 C-11.08784968 50.75016865 -11.08784968 50.75016865 -13 48 C-16.6691577 47.85689713 -20.32715441 47.95778338 -24 48 C-24 42.72 -24 37.44 -24 32 C-22.68 32 -21.36 32 -20 32 C-19.64035156 30.77023438 -19.64035156 30.77023438 -19.2734375 29.515625 C-17.76045963 25.33869224 -15.79235998 21.61725017 -13.625 17.75 C-13.23828125 17.03070313 -12.8515625 16.31140625 -12.453125 15.5703125 C-12.06898437 14.88195312 -11.68484375 14.19359375 -11.2890625 13.484375 C-10.94568848 12.86272461 -10.60231445 12.24107422 -10.24853516 11.60058594 C-8.70472416 9.62146492 -7.32523063 8.90546887 -5 8 C-2.25 7.875 -2.25 7.875 0 8 C0 5.36 0 2.72 0 0 Z " fill="#F7F7F7" transform="translate(88,120)"/>
<path d="M0 0 C2.64 0 5.28 0 8 0 C8 2.64 8 5.28 8 8 C10.64 8 13.28 8 16 8 C16 9.98 16 11.96 16 14 C17.65 14 19.3 14 21 14 C21 14.66 21 15.32 21 16 C21.99 16 22.98 16 24 16 C24 13.36 24 10.72 24 8 C26.64 8 29.28 8 32 8 C32 10.64 32 13.28 32 16 C31.34 16 30.68 16 30 16 C30 23.26 30 30.52 30 38 C28.35 38 26.7 38 25 38 C24 37 24 37 23.90234375 34.05859375 C23.91394531 32.86363281 23.92554688 31.66867188 23.9375 30.4375 C23.94652344 29.23996094 23.95554688 28.04242188 23.96484375 26.80859375 C23.97644531 25.88175781 23.98804688 24.95492187 24 24 C23.01 24 22.02 24 21 24 C21 28.62 21 33.24 21 38 C19.35 37.67 17.7 37.34 16 37 C16 34.03 16 31.06 16 28 C13.36 28 10.72 28 8 28 C8 31.96 8 35.92 8 40 C0.08 40 -7.84 40 -16 40 C-16 33 -16 33 -15 30 C-13.35 30 -11.7 30 -10 30 C-10 31.32 -10 32.64 -10 34 C-8.35 34 -6.7 34 -5 34 C-5 32.35 -5 30.7 -5 29 C-5.928125 28.7525 -6.85625 28.505 -7.8125 28.25 C-11.22459698 26.91192275 -12.34592878 26.21624959 -14 23 C-14.4375 20.5 -14.4375 20.5 -14 18 C-12.125 15.6875 -12.125 15.6875 -10 14 C-9.34 14 -8.68 14 -8 14 C-8 12.02 -8 10.04 -8 8 C-5.36 8 -2.72 8 0 8 C0 5.36 0 2.72 0 0 Z " fill="#F5F5F5" transform="translate(144,152)"/>
<path d="M0 0 C2.64 0 5.28 0 8 0 C8 2.64 8 5.28 8 8 C7.34 8 6.68 8 6 8 C6 15.26 6 22.52 6 30 C4.35 29.67 2.7 29.34 1 29 C0.505 30.485 0.505 30.485 0 32 C-13.2 32 -26.4 32 -40 32 C-40 29.36 -40 26.72 -40 24 C-39.34 24 -38.68 24 -38 24 C-38 18.39 -38 12.78 -38 7 C-36.35 7 -34.7 7 -33 7 C-32.67 12.94 -32.34 18.88 -32 25 C-30.35 25 -28.7 25 -27 25 C-26.505 16.09 -26.505 16.09 -26 7 C-24.35 7 -22.7 7 -21 7 C-21 12.61 -21 18.22 -21 24 C-20.01 24 -19.02 24 -18 24 C-18 18.39 -18 12.78 -18 7 C-5.14285714 6.85714286 -5.14285714 6.85714286 0 8 C0 5.36 0 2.72 0 0 Z " fill="#D9D9D9" transform="translate(120,160)"/>
<path d="M0 0 C2.49552403 2.27597646 4.06622986 4.60721178 5.6875 7.5625 C6.12449219 8.34753906 6.56148437 9.13257812 7.01171875 9.94140625 C8 12 8 12 8 14 C8.66 14 9.32 14 10 14 C10.2475 13.319375 10.495 12.63875 10.75 11.9375 C12.24197908 8.43134917 14.06835511 5.28379632 16 2 C16.33 2 16.66 2 17 2 C17 4.64 17 7.28 17 10 C19.64 10 22.28 10 25 10 C25 11.65 25 13.3 25 15 C20.05 15.33 15.1 15.66 10 16 C10.71542969 17.24910156 11.43085937 18.49820313 12.16796875 19.78515625 C14.85519736 24.47937741 17.53569689 29.17741766 20.21533203 33.87597656 C22.01239132 37.02169074 23.81658803 40.1632403 25.62109375 43.3046875 C26.78932388 45.34880898 27.95729939 47.39307599 29.125 49.4375 C29.68082764 50.40115479 30.23665527 51.36480957 30.80932617 52.35766602 C33.34969512 56.81917667 35.6494174 61.00617915 37 66 C35.68 66 34.36 66 33 66 C33 68.64 33 71.28 33 74 C30.36 74 27.72 74 25 74 C25 71.36 25 68.72 25 66 C22.36 66 19.72 66 17 66 C17 63.36 17 60.72 17 58 C19.64 58 22.28 58 25 58 C25 55.36 25 52.72 25 50 C22.36 50 19.72 50 17 50 C17 47.36 17 44.72 17 42 C14.36 42 11.72 42 9 42 C9 39.36 9 36.72 9 34 C6.36 34 3.72 34 1 34 C1 36.64 1 39.28 1 42 C-1.64 42.66 -4.28 43.32 -7 44 C-5.60582632 40.29102741 -3.92181521 36.92161688 -1.9609375 33.48046875 C-1.09082031 31.9480957 -1.09082031 31.9480957 -0.203125 30.38476562 C0.40015625 29.32966797 1.0034375 28.27457031 1.625 27.1875 C2.23601562 26.11306641 2.84703125 25.03863281 3.4765625 23.93164062 C4.98155885 21.28613924 6.48945791 18.6423375 8 16 C5.69 15.67 3.38 15.34 1 15 C1 13.35 1 11.7 1 10 C-1.64 10 -4.28 10 -7 10 C-7 7.36 -7 4.72 -7 2 C-4.69 2 -2.38 2 0 2 C0 1.34 0 0.68 0 0 Z " fill="#F7F4F4" transform="translate(87,86)"/>
<path d="M0 0 C1.32 2.64 2.64 5.28 4 8 C4.99 5.36 5.98 2.72 7 0 C8.98 0 10.96 0 13 0 C13 5.61 13 11.22 13 17 C13.66 17 14.32 17 15 17 C15 19.64 15 22.28 15 25 C7.08 25 -0.84 25 -9 25 C-9 22.36 -9 19.72 -9 17 C-11.64 17 -14.28 17 -17 17 C-17 14.36 -17 11.72 -17 9 C-14.36 9 -11.72 9 -9 9 C-9 6.36 -9 3.72 -9 1 C-5.8035914 -0.06546953 -3.34252724 -0.07427838 0 0 Z " fill="#EFEFEF" transform="translate(25,167)"/>
<path d="M0 0 C2.64 0 5.28 0 8 0 C8 2.64 8 5.28 8 8 C8.515625 7.835 9.03125 7.67 9.5625 7.5 C13.50749785 6.69076967 17.43170579 5.98819728 20.9375 8.25 C22 10 22 10 22 14 C20.68 14 19.36 14 18 14 C17.67 13.01 17.34 12.02 17 11 C16.01 11 15.02 11 14 11 C14.37441223 13.50487052 14.57006225 14.67316483 16.62890625 16.23828125 C17.26699219 16.59277344 17.90507813 16.94726562 18.5625 17.3125 C20.4609375 18.57421875 20.4609375 18.57421875 22 20 C22.6875 23.625 22.6875 23.625 22 27 C19.80827201 29.61321414 18.35345908 29.94109015 15 30.5 C11.0199318 29.8366553 10.37183401 28.13694175 8 25 C5.36539052 24.12056596 5.36539052 24.12056596 3 24 C3 25.65 3 27.3 3 29 C1.35 29.33 -0.3 29.66 -2 30 C-2 23.73 -2 17.46 -2 11 C-3.32 11 -4.64 11 -6 11 C-6 9.35 -6 7.7 -6 6 C-4.02 6 -2.04 6 0 6 C0 4.02 0 2.04 0 0 Z " fill="#E9E9E9" transform="translate(56,160)"/>
<path d="M0 0 C2.64 0 5.28 0 8 0 C8 2.64 8 5.28 8 8 C10.64 8 13.28 8 16 8 C16 10.64 16 13.28 16 16 C18.64 16 21.28 16 24 16 C24 18.64 24 21.28 24 24 C21.36 24 18.72 24 16 24 C16 26.64 16 29.28 16 32 C13.36 32 10.72 32 8 32 C8 29.36 8 26.72 8 24 C5.36 24 2.72 24 0 24 C0 21.36 0 18.72 0 16 C-2.64 16 -5.28 16 -8 16 C-8.1875 13.125 -8.1875 13.125 -8 10 C-4.77208445 7.8480563 -3.71599191 7.79913557 0 8 C0 5.36 0 2.72 0 0 Z " fill="#FAFAFA" transform="translate(88,120)"/>
<path d="M0 0 C2.64 0 5.28 0 8 0 C8.495 1.485 8.495 1.485 9 3 C8.34 3 7.68 3 7 3 C6.59599976 4.32185303 6.59599976 4.32185303 6.18383789 5.67041016 C5.06446871 8.81867927 3.7622156 11.40910917 2.05859375 14.2734375 C1.47867676 15.25634766 0.89875977 16.23925781 0.30126953 17.25195312 C-0.31377441 18.28255859 -0.92881836 19.31316406 -1.5625 20.375 C-2.82780932 22.51764696 -4.09212945 24.66087839 -5.35546875 26.8046875 C-5.97470215 27.85366211 -6.59393555 28.90263672 -7.23193359 29.98339844 C-9.6615358 34.12868494 -12.02993621 38.30643979 -14.375 42.5 C-14.74955322 43.16950684 -15.12410645 43.83901367 -15.51000977 44.52880859 C-16.34169316 46.01826519 -17.17115753 47.50896064 -18 49 C-19.98 48.67 -21.96 48.34 -24 48 C-24 45.36 -24 42.72 -24 40 C-21.36 40 -18.72 40 -16 40 C-16 37.36 -16 34.72 -16 32 C-18.64 32 -21.28 32 -24 32 C-24 29.36 -24 26.72 -24 24 C-21.36 24 -18.72 24 -16 24 C-16 21.36 -16 18.72 -16 16 C-13.36 16 -10.72 16 -8 16 C-8 13.36 -8 10.72 -8 8 C-5.36 8 -2.72 8 0 8 C0 5.36 0 2.72 0 0 Z " fill="#EFECEC" transform="translate(88,0)"/>
<path d="M0 0 C2.64 0 5.28 0 8 0 C8 2.64 8 5.28 8 8 C10.64 8 13.28 8 16 8 C16 9.98 16 11.96 16 14 C16.66 14.33 17.32 14.66 18 15 C16.68 15 15.36 15 14 15 C14.01160156 16.28777344 14.02320312 17.57554687 14.03515625 18.90234375 C14.0445327 20.58072772 14.05363305 22.25911326 14.0625 23.9375 C14.07087891 24.78763672 14.07925781 25.63777344 14.08789062 26.51367188 C14.09272461 27.72700195 14.09272461 27.72700195 14.09765625 28.96484375 C14.10551147 30.08814087 14.10551147 30.08814087 14.11352539 31.23413086 C14 33 14 33 13 34 C10.5 34.125 10.5 34.125 8 34 C7 33 7 33 6.88647461 31.23413086 C6.89171143 30.48526611 6.89694824 29.73640137 6.90234375 28.96484375 C6.90556641 28.15595703 6.90878906 27.34707031 6.91210938 26.51367188 C6.92048828 25.66353516 6.92886719 24.81339844 6.9375 23.9375 C6.94201172 23.08349609 6.94652344 22.22949219 6.95117188 21.34960938 C6.96299627 19.23304337 6.98093231 17.11651315 7 15 C5.35 15 3.7 15 2 15 C2 17.97 2 20.94 2 24 C1.34 24 0.68 24 0 24 C-0.33 27.3 -0.66 30.6 -1 34 C-1.33 34 -1.66 34 -2 34 C-2.2784375 32.4221875 -2.2784375 32.4221875 -2.5625 30.8125 C-3.8720195 26.04002892 -6.90732121 24.50108148 -11 22 C-10.67 20.68 -10.34 19.36 -10 18 C-8.68 18.33 -7.36 18.66 -6 19 C-6 19.99 -6 20.98 -6 22 C-4.68 22 -3.36 22 -2 22 C-2.48207356 19.49641128 -2.48207356 19.49641128 -4 17 C-7.53514293 15.62032476 -7.53514293 15.62032476 -11 15 C-10.01 14.67 -9.02 14.34 -8 14 C-8 12.02 -8 10.04 -8 8 C-5.36 8 -2.72 8 0 8 C0 5.36 0 2.72 0 0 Z " fill="#FBFBFB" transform="translate(80,152)"/>
<path d="M0 0 C7.92 0 15.84 0 24 0 C24 2.64 24 5.28 24 8 C21.36 8 18.72 8 16 8 C16 9.98 16 11.96 16 14 C14.02 14 12.04 14 10 14 C10 15.65 10 17.3 10 19 C11.32 19 12.64 19 14 19 C14 20.98 14 22.96 14 25 C12.02 24.67 10.04 24.34 8 24 C8.020625 25.19625 8.04125 26.3925 8.0625 27.625 C8.06882571 31.18004869 7.69888875 34.50555624 7 38 C5.35 37.67 3.7 37.34 2 37 C2 30.07 2 23.14 2 16 C1.34 16 0.68 16 0 16 C0 10.72 0 5.44 0 0 Z " fill="#EEEEEE" transform="translate(40,152)"/>
<path d="M0 0 C2.64 0 5.28 0 8 0 C8 2.64 8 5.28 8 8 C7.34 8 6.68 8 6 8 C6 15.26 6 22.52 6 30 C4.35 30 2.7 30 1 30 C0 29 0 29 -0.09765625 26.05859375 C-0.08605469 24.86363281 -0.07445312 23.66867188 -0.0625 22.4375 C-0.05347656 21.23996094 -0.04445312 20.04242188 -0.03515625 18.80859375 C-0.02355469 17.88175781 -0.01195312 16.95492187 0 16 C-0.99 16 -1.98 16 -3 16 C-3 20.62 -3 25.24 -3 30 C-4.32 30 -5.64 30 -7 30 C-7 26.37 -7 22.74 -7 19 C-10.3 19 -13.6 19 -17 19 C-17 22.3 -17 25.6 -17 29 C-18.32 29 -19.64 29 -21 29 C-21 21.74 -21 14.48 -21 7 C-19.68 7 -18.36 7 -17 7 C-17 9.97 -17 12.94 -17 16 C-13.7 16 -10.4 16 -7 16 C-7 13.03 -7 10.06 -7 7 C-4.69 7.33 -2.38 7.66 0 8 C0 5.36 0 2.72 0 0 Z " fill="#DCDCDC" transform="translate(168,160)"/>
<path d="M0 0 C2.49552403 2.27597646 4.06622986 4.60721178 5.6875 7.5625 C6.12449219 8.34753906 6.56148437 9.13257812 7.01171875 9.94140625 C8 12 8 12 8 14 C8.66 14 9.32 14 10 14 C10.2475 13.319375 10.495 12.63875 10.75 11.9375 C12.24197908 8.43134917 14.06835511 5.28379632 16 2 C16.33 2 16.66 2 17 2 C17 4.64 17 7.28 17 10 C19.64 10 22.28 10 25 10 C25 11.65 25 13.3 25 15 C20.05 15.33 15.1 15.66 10 16 C10.825 17.27875 11.65 18.5575 12.5 19.875 C15 23.75 15 23.75 15 26 C13.02 26 11.04 26 9 26 C9 28.64 9 31.28 9 34 C6.36 34 3.72 34 1 34 C1 36.64 1 39.28 1 42 C-1.64 42.66 -4.28 43.32 -7 44 C-5.60582632 40.29102741 -3.92181521 36.92161688 -1.9609375 33.48046875 C-1.09082031 31.9480957 -1.09082031 31.9480957 -0.203125 30.38476562 C0.40015625 29.32966797 1.0034375 28.27457031 1.625 27.1875 C2.23601562 26.11306641 2.84703125 25.03863281 3.4765625 23.93164062 C4.98155885 21.28613924 6.48945791 18.6423375 8 16 C5.69 15.67 3.38 15.34 1 15 C1 13.35 1 11.7 1 10 C-1.64 10 -4.28 10 -7 10 C-7 7.36 -7 4.72 -7 2 C-4.69 2 -2.38 2 0 2 C0 1.34 0 0.68 0 0 Z " fill="#EFE7E7" transform="translate(87,86)"/>
<path d="M0 0 C7.92 0 15.84 0 24 0 C24 2.64 24 5.28 24 8 C21.36 8 18.72 8 16 8 C16.103125 8.9075 16.20625 9.815 16.3125 10.75 C16.209375 11.8225 16.10625 12.895 16 14 C15.154375 14.639375 14.30875 15.27875 13.4375 15.9375 C12.2309375 16.9584375 12.2309375 16.9584375 11 18 C10.50917209 21.56709633 10.50917209 21.56709633 12 25 C14.24190236 26.82653803 16.33015294 27.78643315 19 29 C19 30.65 19 32.3 19 34 C17.35 34 15.7 34 14 34 C14 32.68 14 31.36 14 30 C12.35 30 10.7 30 9 30 C8.67 33.3 8.34 36.6 8 40 C5.36 40 2.72 40 0 40 C0 37.36 0 34.72 0 32 C0.33 32 0.66 32 1 32 C1.33 33.65 1.66 35.3 2 37 C3.32 37.33 4.64 37.66 6 38 C6 30.74 6 23.48 6 16 C6.66 16 7.32 16 8 16 C8 13.36 8 10.72 8 8 C5.36 8 2.72 8 0 8 C0 5.36 0 2.72 0 0 Z " fill="#F1F1F1" transform="translate(120,152)"/>
<path d="M0 0 C2.64 0 5.28 0 8 0 C8 2.64 8 5.28 8 8 C8.66 8 9.32 8 10 8 C10.33 14.93 10.66 21.86 11 29 C12.32 29.33 13.64 29.66 15 30 C15.33 25.38 15.66 20.76 16 16 C17.65 16 19.3 16 21 16 C22 17 22 17 22.09765625 19.94140625 C22.08605469 21.13636719 22.07445313 22.33132812 22.0625 23.5625 C22.05347656 24.76003906 22.04445313 25.95757812 22.03515625 27.19140625 C22.02355469 28.11824219 22.01195313 29.04507813 22 30 C23.32 29.67 24.64 29.34 26 29 C26.33 27.35 26.66 25.7 27 24 C29.25 23.6875 29.25 23.6875 32 24 C32.639375 24.825 33.27875 25.65 33.9375 26.5 C35.78976785 29.30220459 35.78976785 29.30220459 39 29.5 C42.34126312 28.94312281 43.56736752 28.30697997 46 26 C46.90561146 23.5170581 46.90561146 23.5170581 47.25 20.8125 C47.39953125 19.91144531 47.5490625 19.01039063 47.703125 18.08203125 C47.80109375 17.39496094 47.8990625 16.70789063 48 16 C48.66 16 49.32 16 50 16 C50 18.64 50 21.28 50 24 C49.34 24 48.68 24 48 24 C48 26.64 48 29.28 48 32 C34.8 32 21.6 32 8 32 C8 29.36 8 26.72 8 24 C7.34 24 6.68 24 6 24 C5.67 18.39 5.34 12.78 5 7 C3.35 6.67 1.7 6.34 0 6 C0 4.02 0 2.04 0 0 Z " fill="#F6F6F6" transform="translate(32,160)"/>
<path d="M0 0 C11 0 11 0 14 2 C14.1875 5.4375 14.1875 5.4375 14 9 C14 9.99 14 10.98 14 12 C14.33 12.33 14.66 12.66 15 13 C15.25 16.4375 15.25 16.4375 15 20 C10.25368713 23.16420858 5.63243123 22.12112755 0 22 C0 14.74 0 7.48 0 0 Z " fill="#181818" transform="translate(103,167)"/>
<path d="M0 0 C1.65 0 3.3 0 5 0 C6.32 2.64 7.64 5.28 9 8 C9.99 5.36 10.98 2.72 12 0 C13.65 0 15.3 0 17 0 C17 7.59 17 15.18 17 23 C15.68 23 14.36 23 13 23 C12.67 19.37 12.34 15.74 12 12 C11.01 13.98 10.02 15.96 9 18 C7.10786631 15.61426621 5.97608217 13.92824652 5 11 C4.67 14.96 4.34 18.92 4 23 C2.68 23 1.36 23 0 23 C0 15.41 0 7.82 0 0 Z " fill="#171717" transform="translate(20,167)"/>
<path d="M0 0 C7.92 0 15.84 0 24 0 C24 2.64 24 5.28 24 8 C21.36 8 18.72 8 16 8 C16 10.64 16 13.28 16 16 C15.01 16 14.02 16 13 16 C13 15.34 13 14.68 13 14 C11.35 14 9.7 14 8 14 C8 12.02 8 10.04 8 8 C5.36 8 2.72 8 0 8 C0 5.36 0 2.72 0 0 Z " fill="#EEEEEE" transform="translate(152,152)"/>
<path d="M0 0 C2.64 0 5.28 0 8 0 C8 2.64 8 5.28 8 8 C7.34 8 6.68 8 6 8 C6 15.26 6 22.52 6 30 C4.35 29.67 2.7 29.34 1 29 C1 27.35 1 25.7 1 24 C0.34 24 -0.32 24 -1 24 C-4.6784434 18.76529209 -4 14.16998813 -4 8 C-2.68 8 -1.36 8 0 8 C0 5.36 0 2.72 0 0 Z " fill="#DDDDDD" transform="translate(120,160)"/>
<path d="M0 0 C1.32 0 2.64 0 4 0 C4.33 5.94 4.66 11.88 5 18 C6.65 18 8.3 18 10 18 C10.495 9.09 10.495 9.09 11 0 C12.65 0 14.3 0 16 0 C16.13539281 2.89740622 16.23426829 5.78845621 16.3125 8.6875 C16.35439453 9.50412109 16.39628906 10.32074219 16.43945312 11.16210938 C16.528696 15.5707075 16.44015288 17.41612373 13.703125 21.046875 C11 23 11 23 7.4375 23.5625 C4 23 4 23 1.80078125 21.57421875 C-0.95373129 17.63664009 -0.42966929 13.92831188 -0.25 9.25 C-0.23195313 8.36183594 -0.21390625 7.47367188 -0.1953125 6.55859375 C-0.14827374 4.37129152 -0.08257009 2.18620184 0 0 Z " fill="#222222" transform="translate(83,167)"/>
<path d="M0 0 C1.32 0 2.64 0 4 0 C4 2.97 4 5.94 4 9 C7.3 9 10.6 9 14 9 C14 6.03 14 3.06 14 0 C15.32 0 16.64 0 18 0 C18 7.59 18 15.18 18 23 C16.68 23 15.36 23 14 23 C14 19.37 14 15.74 14 12 C10.7 12 7.4 12 4 12 C4 15.3 4 18.6 4 22 C2.68 22 1.36 22 0 22 C0 14.74 0 7.48 0 0 Z " fill="#202020" transform="translate(147,167)"/>
<path d="M0 0 C1.9375 1.25 1.9375 1.25 3 3 C3 4.32 3 5.64 3 7 C1.68 7 0.36 7 -1 7 C-1.33 6.01 -1.66 5.02 -2 4 C-2.99 4 -3.98 4 -5 4 C-4.62558777 6.50487052 -4.42993775 7.67316483 -2.37109375 9.23828125 C-1.41396484 9.77001953 -1.41396484 9.77001953 -0.4375 10.3125 C1.4609375 11.57421875 1.4609375 11.57421875 3 13 C3.6875 16.625 3.6875 16.625 3 20 C0.80827201 22.61321414 -0.64654092 22.94109015 -4 23.5 C-7 23 -7 23 -9.375 20.6875 C-11 18 -11 18 -11 15 C-9.68 15 -8.36 15 -7 15 C-6.01 16.485 -6.01 16.485 -5 18 C-3.68 18 -2.36 18 -1 18 C-1 17.01 -1 16.02 -1 15 C-2.75244604 13.78337271 -2.75244604 13.78337271 -4.9375 12.75 C-8.39280238 10.72828052 -8.87086718 10.39419492 -10.1875 6.375 C-10 3 -10 3 -9 1.0625 C-5.90131981 -0.58367385 -3.43858351 -0.36841966 0 0 Z " fill="#1C1C1C" transform="translate(75,167)"/>
<path d="M0 0 C1.9375 1.25 1.9375 1.25 3 3 C3 4.32 3 5.64 3 7 C1.68 7 0.36 7 -1 7 C-1.33 6.01 -1.66 5.02 -2 4 C-2.99 4 -3.98 4 -5 4 C-4.95231597 5.87880872 -4.95231597 5.87880872 -4 8 C-1.05763218 10.21168225 -1.05763218 10.21168225 2 12 C3 13 3 13 3.3125 16.375 C3 20 3 20 1.375 21.9375 C-1.68887636 23.30818153 -3.67951884 23.49453975 -7 23 C-8.875 21.1875 -8.875 21.1875 -10 19 C-10 18.01 -10 17.02 -10 16 C-9.01 16 -8.02 16 -7 16 C-6.67 16.66 -6.34 17.32 -6 18 C-3.47266765 18.65555119 -3.47266765 18.65555119 -1 19 C-1 17.35 -1 15.7 -1 14 C-1.928125 13.7525 -2.85625 13.505 -3.8125 13.25 C-7.22459698 11.91192275 -8.34592878 11.21624959 -10 8 C-10.41641167 5.15452024 -10.39667983 3.67668913 -8.9375 1.1875 C-5.90624457 -0.67036623 -3.46577141 -0.37133265 0 0 Z " fill="#222222" transform="translate(140,167)"/>
<path d="M0 0 C2.64 0 5.28 0 8 0 C7.67 9.9 7.34 19.8 7 30 C5.35 29.67 3.7 29.34 2 29 C2 22.07 2 15.14 2 8 C1.34 8 0.68 8 0 8 C0 5.36 0 2.72 0 0 Z " fill="#C1C1C1" transform="translate(40,160)"/>
<path d="M0 0 C2.64 0 5.28 0 8 0 C8 2.64 8 5.28 8 8 C8.66 8 9.32 8 10 8 C10 10.64 10 13.28 10 16 C9.34 16 8.68 16 8 16 C7.67 19.3 7.34 22.6 7 26 C6.67 26 6.34 26 6 26 C5.814375 24.948125 5.62875 23.89625 5.4375 22.8125 C4.1279805 18.04002892 1.09267879 16.50108148 -3 14 C-2.67 12.68 -2.34 11.36 -2 10 C-0.02 10.495 -0.02 10.495 2 11 C2 11.99 2 12.98 2 14 C3.32 14 4.64 14 6 14 C5.51792644 11.49641128 5.51792644 11.49641128 4 9 C0.46485707 7.62032476 0.46485707 7.62032476 -3 7 C-2.01 6.67 -1.02 6.34 0 6 C0 4.02 0 2.04 0 0 Z " fill="#E8E8E8" transform="translate(72,160)"/>
<path d="M0 0 C0.33 0 0.66 0 1 0 C1 7.26 1 14.52 1 22 C2.32 22 3.64 22 5 22 C5 18.7 5 15.4 5 12 C8.3 12 11.6 12 15 12 C15 15.3 15 18.6 15 22 C14.67 22 14.34 22 14 22 C14 19.03 14 16.06 14 13 C11.36 13 8.72 13 6 13 C6 16.96 6 20.92 6 25 C-1.92 25 -9.84 25 -18 25 C-18 18 -18 18 -17 15 C-15.35 15 -13.7 15 -12 15 C-12.33 15.99 -12.66 16.98 -13 18 C-13 17.34 -13 16.68 -13 16 C-13.99 16 -14.98 16 -16 16 C-15.01 17.98 -14.02 19.96 -13 22 C-8.2102679 22.23428313 -8.2102679 22.23428313 -4 20 C-3.26656572 16.93443402 -3.26656572 16.93443402 -3 14 C-2.67 14.99 -2.34 15.98 -2 17 C-1.34 17 -0.68 17 0 17 C0 11.39 0 5.78 0 0 Z " fill="#CDCDCD" transform="translate(146,167)"/>
<path d="M0 0 C2.64 0 5.28 0 8 0 C8 1.98 8 3.96 8 6 C9.65 6 11.3 6 13 6 C11.68 6.33 10.36 6.66 9 7 C9 9.97 9 12.94 9 16 C5.7 16 2.4 16 -1 16 C-1 13.03 -1 10.06 -1 7 C-2.32 6.67 -3.64 6.34 -5 6 C-3.35 6 -1.7 6 0 6 C0 4.02 0 2.04 0 0 Z " fill="#DCDCDC" transform="translate(152,160)"/>
<path d="M0 0 C0.33 0 0.66 0 1 0 C1 5.61 1 11.22 1 17 C1.66 17 2.32 17 3 17 C3 19.64 3 22.28 3 25 C-2.28 25 -7.56 25 -13 25 C-13 19.72 -13 14.44 -13 9 C-10.59078295 11.40921705 -9.46187844 13.94334509 -8 17 C-7.01 14.69 -6.02 12.38 -5 10 C-4.67 10 -4.34 10 -4 10 C-4 14.29 -4 18.58 -4 23 C-2.68 23 -1.36 23 0 23 C0 15.41 0 7.82 0 0 Z " fill="#E8E8E8" transform="translate(37,167)"/>
<path d="M0 0 C2.64 0 5.28 0 8 0 C8.33 0.66 8.66 1.32 9 2 C7.75717988 4.45038293 6.47117661 6.773325 5.0625 9.125 C4.67642578 9.78371094 4.29035156 10.44242188 3.89257812 11.12109375 C2.93553422 12.751613 1.96867185 14.37636184 1 16 C-1.97 16 -4.94 16 -8 16 C-8 13.36 -8 10.72 -8 8 C-5.36 8 -2.72 8 0 8 C0 5.36 0 2.72 0 0 Z " fill="#EEEEEE" transform="translate(24,112)"/>
<path d="M0 0 C0.33 0 0.66 0 1 0 C1 1.98 1 3.96 1 6 C3.64 6 6.28 6 9 6 C9 8.64 9 11.28 9 14 C8.04738281 14.01417969 7.09476563 14.02835938 6.11328125 14.04296875 C-1.8003417 13.91687841 -1.8003417 13.91687841 -8.375 17.5625 C-8.91125 18.366875 -9.4475 19.17125 -10 20 C-8.56347895 15.08558588 -6.45840385 10.99761642 -3.875 6.625 C-3.50246094 5.98433594 -3.12992187 5.34367188 -2.74609375 4.68359375 C-1.83565998 3.11951523 -0.91851809 1.55934466 0 0 Z " fill="#F9E7E7" transform="translate(79,130)"/>
<path d="M0 0 C0.33 0.66 0.66 1.32 1 2 C3.52733235 2.65555119 3.52733235 2.65555119 6 3 C6 5.64 6 8.28 6 11 C3.36 11 0.72 11 -2 11 C-2 13.64 -2 16.28 -2 19 C-4.64 19 -7.28 19 -10 19 C-8.62394084 14.23448987 -6.53221934 10.2751447 -3.875 6.125 C-3.50246094 5.53203125 -3.12992187 4.9390625 -2.74609375 4.328125 C-1.83635 2.8818657 -0.91896202 1.44041954 0 0 Z " fill="#F0E6E6" transform="translate(114,69)"/>
<path d="M0 0 C3.24822479 2.77687356 5.12183056 6.39061382 7.1875 10.0625 C7.55552734 10.69994141 7.92355469 11.33738281 8.30273438 11.99414062 C11 16.74312964 11 16.74312964 11 19 C8.36 19 5.72 19 3 19 C3 16.36 3 13.72 3 11 C0.36 11 -2.28 11 -5 11 C-5 8.36 -5 5.72 -5 3 C-3.35 2.67 -1.7 2.34 0 2 C0 1.34 0 0.68 0 0 Z " fill="#F0E8E8" transform="translate(109,125)"/>
<path d="M0 0 C4.29 0 8.58 0 13 0 C13 1.32 13 2.64 13 4 C11.35 4 9.7 4 8 4 C8 10.27 8 16.54 8 23 C6.68 23 5.36 23 4 23 C4 16.73 4 10.46 4 4 C2.68 4 1.36 4 0 4 C0 2.68 0 1.36 0 0 Z " fill="#202020" transform="translate(50,167)"/>
<path d="M0 0 C2.64 0 5.28 0 8 0 C8 2.64 8 5.28 8 8 C10.64 8 13.28 8 16 8 C16 10.64 16 13.28 16 16 C13.69 16.33 11.38 16.66 9 17 C7.49743011 14.35559624 5.9978388 11.70958148 4.5 9.0625 C4.07074219 8.30775391 3.64148438 7.55300781 3.19921875 6.77539062 C2.79316406 6.05673828 2.38710937 5.33808594 1.96875 4.59765625 C1.59169922 3.93258057 1.21464844 3.26750488 0.82617188 2.58227539 C0 1 0 1 0 0 Z " fill="#F0EBEB" transform="translate(104,16)"/>
<path d="M0 0 C18.48 0 36.96 0 56 0 C56 0.33 56 0.66 56 1 C46.76 1 37.52 1 28 1 C28 3.64 28 6.28 28 9 C25.36 9 22.72 9 20 9 C20 6.36 20 3.72 20 1 C13.4 1 6.8 1 0 1 C0 0.67 0 0.34 0 0 Z " fill="#F1D5D5" transform="translate(12,151)"/>
<path d="M0 0 C3.87641915 4.32369829 10 11.95808443 10 18 C7.69 18 5.38 18 3 18 C3 15.36 3 12.72 3 10 C0.36 10 -2.28 10 -5 10 C-5 7.36 -5 4.72 -5 2 C-3.35 2 -1.7 2 0 2 C0 1.34 0 0.68 0 0 Z " fill="#EFE4E4" transform="translate(69,54)"/>
<path d="M0 0 C2.31 0 4.62 0 7 0 C6.09111244 1.89957501 5.17251969 3.79450786 4.25 5.6875 C3.73953125 6.74324219 3.2290625 7.79898438 2.703125 8.88671875 C1.05468828 11.90003083 -0.77499662 14.39287648 -3 17 C-4.65 16.67 -6.3 16.34 -8 16 C-8 13.36 -8 10.72 -8 8 C-5.36 8 -2.72 8 0 8 C0 5.36 0 2.72 0 0 Z " fill="#EFEAEA" transform="translate(72,32)"/>
<path d="M0 0 C2.64 0 5.28 0 8 0 C8 1.98 8 3.96 8 6 C9.65 6 11.3 6 13 6 C13 6.33 13 6.66 13 7 C11.35 7 9.7 7 8 7 C7.8453125 8.3921875 7.8453125 8.3921875 7.6875 9.8125 C6.96772204 13.14965236 6.42857128 13.83186532 4 16 C3.76216797 15.15115234 3.76216797 15.15115234 3.51953125 14.28515625 C2.81418295 12.06779058 2.10846848 10.04806871 1 8 C-1.57080135 6.86559222 -1.57080135 6.86559222 -4 7 C-2.68 6.67 -1.36 6.34 0 6 C0 4.02 0 2.04 0 0 Z " fill="#ECECEC" transform="translate(24,160)"/>
<path d="M0 0 C1.32 0 2.64 0 4 0 C4 3.3 4 6.6 4 10 C6.97 10 9.94 10 13 10 C13 10.33 13 10.66 13 11 C10.03 11 7.06 11 4 11 C4 14.63 4 18.26 4 22 C2.68 22 1.36 22 0 22 C0 14.74 0 7.48 0 0 Z " fill="#0E0E0E" transform="translate(147,167)"/>
<path d="M0 0 C1.32 0 2.64 0 4 0 C4 7.59 4 15.18 4 23 C2.68 23 1.36 23 0 23 C0 15.41 0 7.82 0 0 Z " fill="#171717" transform="translate(122,167)"/>
<path d="M0 0 C0.33 0 0.66 0 1 0 C1 2.64 1 5.28 1 8 C3.64 8 6.28 8 9 8 C9 9.65 9 11.3 9 13 C4.38 13 -0.24 13 -5 13 C-4.0111713 7.06702777 -3.01123597 4.85683221 0 0 Z " fill="#FDFBFB" transform="translate(103,88)"/>
<path d="M0 0 C1.32 0 2.64 0 4 0 C4 7.26 4 14.52 4 22 C2.68 22 1.36 22 0 22 C0 14.74 0 7.48 0 0 Z " fill="#131313" transform="translate(169,167)"/>
<path d="M0 0 C0 7.59 0 15.18 0 23 C1.32 23 2.64 23 4 23 C4 23.66 4 24.32 4 25 C1.36 25 -1.28 25 -4 25 C-4 22.36 -4 19.72 -4 17 C-3.01 17 -2.02 17 -1 17 C-1 14.36 -1 11.72 -1 9 C-1.99 9 -2.98 9 -4 9 C-4 6.36 -4 3.72 -4 1 C-1 0 -1 0 0 0 Z " fill="#E2E2E2" transform="translate(20,167)"/>
<path d="M0 0 C1.98 0 3.96 0 6 0 C6 1.32 6 2.64 6 4 C5.01 4.33 4.02 4.66 3 5 C3 5.99 3 6.98 3 8 C4.32 8.33 5.64 8.66 7 9 C7.042721 10.66611905 7.04063832 12.33382885 7 14 C6.67 14.33 6.34 14.66 6 15 C4.02 15 2.04 15 0 15 C0 10.05 0 5.1 0 0 Z " fill="#E3E3E3" transform="translate(107,171)"/>
<path d="M0 0 C0.66 0 1.32 0 2 0 C2.76299944 8.14648632 3.21521251 15.88611956 2 24 C-0.64 24 -3.28 24 -6 24 C-6 21.36 -6 18.72 -6 16 C-5.67 16 -5.34 16 -5 16 C-4.67 17.65 -4.34 19.3 -4 21 C-2.68 21.33 -1.36 21.66 0 22 C0 14.74 0 7.48 0 0 Z " fill="#FAFAFA" transform="translate(126,168)"/>
<path d="M0 0 C0.99 0 1.98 0 3 0 C3 7.26 3 14.52 3 22 C2.01 22 1.02 22 0 22 C0 14.74 0 7.48 0 0 Z " fill="#050505" transform="translate(43,167)"/>
<path d="M0 0 C2.64 0 5.28 0 8 0 C8.33 2.97 8.66 5.94 9 9 C6.03 8.67 3.06 8.34 0 8 C0 5.36 0 2.72 0 0 Z " fill="#FDFDFD" transform="translate(24,104)"/>
<path d="M0 0 C2.64 0 5.28 0 8 0 C8.1953125 6.0546875 8.1953125 6.0546875 8 8 C7.34 8.66 6.68 9.32 6 10 C5.34 9.34 4.68 8.68 4 8 C2.01178687 7.60235737 0.01055661 7.26224651 -2 7 C-1.34 6.67 -0.68 6.34 0 6 C0 4.02 0 2.04 0 0 Z " fill="#E5E5E5" transform="translate(136,160)"/>
<path d="M0 0 C2.64 0 5.28 0 8 0 C8 2.64 8 5.28 8 8 C5.36 8 2.72 8 0 8 C0 5.36 0 2.72 0 0 Z " fill="#FEFEFE" transform="translate(184,184)"/>
<path d="M0 0 C2.64 0 5.28 0 8 0 C8 2.64 8 5.28 8 8 C5.36 8 2.72 8 0 8 C0 5.36 0 2.72 0 0 Z " fill="#EEEEEE" transform="translate(176,184)"/>
<path d="M0 0 C2.64 0 5.28 0 8 0 C8 2.64 8 5.28 8 8 C5.36 8 2.72 8 0 8 C0 5.36 0 2.72 0 0 Z " fill="#FEFEFE" transform="translate(8,184)"/>
<path d="M0 0 C2.64 0 5.28 0 8 0 C8 2.64 8 5.28 8 8 C5.36 8 2.72 8 0 8 C0 5.36 0 2.72 0 0 Z " fill="#EEEEEE" transform="translate(0,184)"/>
<path d="M0 0 C2.64 0 5.28 0 8 0 C8 2.64 8 5.28 8 8 C5.36 8 2.72 8 0 8 C0 5.36 0 2.72 0 0 Z " fill="#EEEEEE" transform="translate(184,176)"/>
<path d="M0 0 C2.64 0 5.28 0 8 0 C8 2.64 8 5.28 8 8 C5.36 8 2.72 8 0 8 C0 5.36 0 2.72 0 0 Z " fill="#FEFEFE" transform="translate(0,176)"/>
<path d="M0 0 C2.64 0 5.28 0 8 0 C8 2.64 8 5.28 8 8 C5.36 8 2.72 8 0 8 C0 5.36 0 2.72 0 0 Z " fill="#FEFEFE" transform="translate(184,168)"/>
<path d="M0 0 C2.64 0 5.28 0 8 0 C8 2.64 8 5.28 8 8 C5.36 8 2.72 8 0 8 C0 5.36 0 2.72 0 0 Z " fill="#EEEEEE" transform="translate(176,168)"/>
<path d="M0 0 C2.64 0 5.28 0 8 0 C8 2.64 8 5.28 8 8 C5.36 8 2.72 8 0 8 C0 5.36 0 2.72 0 0 Z " fill="#FDFDFD" transform="translate(8,168)"/>
<path d="M0 0 C2.64 0 5.28 0 8 0 C8 2.64 8 5.28 8 8 C5.36 8 2.72 8 0 8 C0 5.36 0 2.72 0 0 Z " fill="#EEEEEE" transform="translate(0,168)"/>
<path d="M0 0 C2.64 0 5.28 0 8 0 C8 2.64 8 5.28 8 8 C5.36 8 2.72 8 0 8 C0 5.36 0 2.72 0 0 Z " fill="#FDFDFD" transform="translate(176,160)"/>
<path d="M0 0 C2.64 0 5.28 0 8 0 C8 1.98 8 3.96 8 6 C8.66 6.33 9.32 6.66 10 7 C6.7 7.33 3.4 7.66 0 8 C0 5.36 0 2.72 0 0 Z " fill="#EDEDED" transform="translate(88,160)"/>
<path d="M0 0 C2.64 0 5.28 0 8 0 C8 2.64 8 5.28 8 8 C5.36 8 2.72 8 0 8 C0 5.36 0 2.72 0 0 Z " fill="#EEEEEE" transform="translate(8,160)"/>
<path d="M0 0 C2.64 0 5.28 0 8 0 C8 2.64 8 5.28 8 8 C5.36 8 2.72 8 0 8 C0 5.36 0 2.72 0 0 Z " fill="#FEFEFE" transform="translate(0,160)"/>
<path d="M0 0 C2.64 0 5.28 0 8 0 C8 2.64 8 5.28 8 8 C5.36 8 2.72 8 0 8 C0 5.36 0 2.72 0 0 Z " fill="#FEFEFE" transform="translate(184,152)"/>
<path d="M0 0 C2.64 0 5.28 0 8 0 C8 2.64 8 5.28 8 8 C5.36 8 2.72 8 0 8 C0 5.36 0 2.72 0 0 Z " fill="#EFEEEE" transform="translate(176,152)"/>
<path d="M0 0 C2.64 0 5.28 0 8 0 C8 2.64 8 5.28 8 8 C5.36 8 2.72 8 0 8 C0 5.36 0 2.72 0 0 Z " fill="#FEFEFE" transform="translate(168,152)"/>
<path d="M0 0 C2.64 0 5.28 0 8 0 C8 2.64 8 5.28 8 8 C5.36 8 2.72 8 0 8 C0 5.36 0 2.72 0 0 Z " fill="#FEFEFE" transform="translate(152,152)"/>
<path d="M0 0 C2.64 0 5.28 0 8 0 C8 2.64 8 5.28 8 8 C5.36 8 2.72 8 0 8 C0 5.36 0 2.72 0 0 Z " fill="#FEFEFE" transform="translate(136,152)"/>
<path d="M0 0 C2.64 0 5.28 0 8 0 C8 2.64 8 5.28 8 8 C5.36 8 2.72 8 0 8 C0 5.36 0 2.72 0 0 Z " fill="#FEFEFE" transform="translate(120,152)"/>
<path d="M0 0 C2.64 0 5.28 0 8 0 C8 2.64 8 5.28 8 8 C5.36 8 2.72 8 0 8 C0 5.36 0 2.72 0 0 Z " fill="#EEEEEE" transform="translate(112,152)"/>
<path d="M0 0 C2.64 0 5.28 0 8 0 C8 2.64 8 5.28 8 8 C5.36 8 2.72 8 0 8 C0 5.36 0 2.72 0 0 Z " fill="#FEFEFE" transform="translate(104,152)"/>
<path d="M0 0 C2.64 0 5.28 0 8 0 C8 2.64 8 5.28 8 8 C5.36 8 2.72 8 0 8 C0 5.36 0 2.72 0 0 Z " fill="#EEEEEE" transform="translate(96,152)"/>
<path d="M0 0 C2.64 0 5.28 0 8 0 C8 2.64 8 5.28 8 8 C5.36 8 2.72 8 0 8 C0 5.36 0 2.72 0 0 Z " fill="#FDFDFD" transform="translate(88,152)"/>
<path d="M0 0 C2.64 0 5.28 0 8 0 C8 2.64 8 5.28 8 8 C5.36 8 2.72 8 0 8 C0 5.36 0 2.72 0 0 Z " fill="#EFEFEF" transform="translate(80,152)"/>
<path d="M0 0 C2.64 0 5.28 0 8 0 C8 2.64 8 5.28 8 8 C5.36 8 2.72 8 0 8 C0 5.36 0 2.72 0 0 Z " fill="#FDFDFD" transform="translate(72,152)"/>
<path d="M0 0 C2.64 0 5.28 0 8 0 C8 2.64 8 5.28 8 8 C5.36 8 2.72 8 0 8 C0 5.36 0 2.72 0 0 Z " fill="#FEFEFE" transform="translate(56,152)"/>
<path d="M0 0 C2.64 0 5.28 0 8 0 C8 2.64 8 5.28 8 8 C5.36 8 2.72 8 0 8 C0 5.36 0 2.72 0 0 Z " fill="#FEFEFE" transform="translate(40,152)"/>
<path d="M0 0 C2.64 0 5.28 0 8 0 C8 2.64 8 5.28 8 8 C5.36 8 2.72 8 0 8 C0 5.36 0 2.72 0 0 Z " fill="#FEFEFE" transform="translate(24,152)"/>
<path d="M0 0 C2.64 0 5.28 0 8 0 C8 2.64 8 5.28 8 8 C5.36 8 2.72 8 0 8 C0 5.36 0 2.72 0 0 Z " fill="#FEFEFE" transform="translate(8,152)"/>
<path d="M0 0 C2.64 0 5.28 0 8 0 C8 2.64 8 5.28 8 8 C5.36 8 2.72 8 0 8 C0 5.36 0 2.72 0 0 Z " fill="#EEEEEE" transform="translate(0,152)"/>
<path d="M0 0 C2.64 0 5.28 0 8 0 C8 2.64 8 5.28 8 8 C5.36 8 2.72 8 0 8 C0 5.36 0 2.72 0 0 Z " fill="#EEEEEE" transform="translate(184,144)"/>
<path d="M0 0 C2.64 0 5.28 0 8 0 C8 2.64 8 5.28 8 8 C5.36 8 2.72 8 0 8 C0 5.36 0 2.72 0 0 Z " fill="#EEEEEE" transform="translate(104,144)"/>
<path d="M0 0 C2.64 0 5.28 0 8 0 C8 2.64 8 5.28 8 8 C5.36 8 2.72 8 0 8 C0 5.36 0 2.72 0 0 Z " fill="#EEEEEE" transform="translate(88,144)"/>
<path d="M0 0 C2.64 0 5.28 0 8 0 C8 2.64 8 5.28 8 8 C5.36 8 2.72 8 0 8 C0 5.36 0 2.72 0 0 Z " fill="#FDFDFD" transform="translate(80,144)"/>
<path d="M0 0 C2.64 0 5.28 0 8 0 C8 2.64 8 5.28 8 8 C5.36 8 2.72 8 0 8 C0 5.36 0 2.72 0 0 Z " fill="#FEFEFE" transform="translate(0,144)"/>
<path d="M0 0 C2.64 0 5.28 0 8 0 C8 2.64 8 5.28 8 8 C5.36 8 2.72 8 0 8 C0 5.36 0 2.72 0 0 Z " fill="#FEFEFE" transform="translate(184,136)"/>
<path d="M0 0 C2.64 0 5.28 0 8 0 C8 2.64 8 5.28 8 8 C5.36 8 2.72 8 0 8 C0 5.36 0 2.72 0 0 Z " fill="#EEEEEE" transform="translate(96,136)"/>
<path d="M0 0 C2.64 0 5.28 0 8 0 C8 2.64 8 5.28 8 8 C5.36 8 2.72 8 0 8 C0 5.36 0 2.72 0 0 Z " fill="#EEEEEE" transform="translate(80,136)"/>
<path d="M0 0 C2.64 0 5.28 0 8 0 C8 2.64 8 5.28 8 8 C5.36 8 2.72 8 0 8 C0 5.36 0 2.72 0 0 Z " fill="#EEEEEE" transform="translate(0,136)"/>
<path d="M0 0 C2.64 0 5.28 0 8 0 C8 2.64 8 5.28 8 8 C5.36 8 2.72 8 0 8 C0 5.36 0 2.72 0 0 Z " fill="#EEEEEE" transform="translate(184,128)"/>
<path d="M0 0 C2.64 0 5.28 0 8 0 C8 2.64 8 5.28 8 8 C5.36 8 2.72 8 0 8 C0 5.36 0 2.72 0 0 Z " fill="#FEFEFE" transform="translate(176,128)"/>
<path d="M0 0 C2.64 0 5.28 0 8 0 C8 2.64 8 5.28 8 8 C5.36 8 2.72 8 0 8 C0 5.36 0 2.72 0 0 Z " fill="#EFEFEF" transform="translate(8,128)"/>
<path d="M0 0 C2.64 0 5.28 0 8 0 C8 2.64 8 5.28 8 8 C5.36 8 2.72 8 0 8 C0 5.36 0 2.72 0 0 Z " fill="#FEFEFE" transform="translate(0,128)"/>
<path d="M0 0 C2.64 0 5.28 0 8 0 C8 2.64 8 5.28 8 8 C5.36 8 2.72 8 0 8 C0 5.36 0 2.72 0 0 Z " fill="#FEFEFE" transform="translate(184,120)"/>
<path d="M0 0 C2.64 0 5.28 0 8 0 C8 2.64 8 5.28 8 8 C5.36 8 2.72 8 0 8 C0 5.36 0 2.72 0 0 Z " fill="#FDFDFD" transform="translate(168,120)"/>
<path d="M0 0 C2.64 0 5.28 0 8 0 C8 2.64 8 5.28 8 8 C5.36 8 2.72 8 0 8 C0 5.36 0 2.72 0 0 Z " fill="#FDFDFD" transform="translate(88,120)"/>
<path d="M0 0 C2.64 0 5.28 0 8 0 C8 2.64 8 5.28 8 8 C5.36 8 2.72 8 0 8 C0 5.36 0 2.72 0 0 Z " fill="#FDFDFD" transform="translate(8,120)"/>
<path d="M0 0 C2.64 0 5.28 0 8 0 C8 2.64 8 5.28 8 8 C5.36 8 2.72 8 0 8 C0 5.36 0 2.72 0 0 Z " fill="#EEEEEE" transform="translate(0,120)"/>
<path d="M0 0 C2.64 0 5.28 0 8 0 C8 2.64 8 5.28 8 8 C5.36 8 2.72 8 0 8 C0 5.36 0 2.72 0 0 Z " fill="#EEEEEE" transform="translate(184,112)"/>
<path d="M0 0 C2.64 0 5.28 0 8 0 C8 2.64 8 5.28 8 8 C5.36 8 2.72 8 0 8 C0 5.36 0 2.72 0 0 Z " fill="#FDFDFD" transform="translate(176,112)"/>
<path d="M0 0 C2.64 0 5.28 0 8 0 C8 2.64 8 5.28 8 8 C5.36 8 2.72 8 0 8 C0 5.36 0 2.72 0 0 Z " fill="#FDFDFD" transform="translate(16,112)"/>
<path d="M0 0 C2.64 0 5.28 0 8 0 C8 2.64 8 5.28 8 8 C5.36 8 2.72 8 0 8 C0 5.36 0 2.72 0 0 Z " fill="#EEEEEE" transform="translate(8,112)"/>
<path d="M0 0 C2.64 0 5.28 0 8 0 C8 2.64 8 5.28 8 8 C5.36 8 2.72 8 0 8 C0 5.36 0 2.72 0 0 Z " fill="#FEFEFE" transform="translate(0,112)"/>
<path d="M0 0 C2.64 0 5.28 0 8 0 C8 2.64 8 5.28 8 8 C5.36 8 2.72 8 0 8 C0 5.36 0 2.72 0 0 Z " fill="#FEFEFE" transform="translate(184,104)"/>
<path d="M0 0 C2.64 0 5.28 0 8 0 C8 2.64 8 5.28 8 8 C5.36 8 2.72 8 0 8 C0 5.36 0 2.72 0 0 Z " fill="#EFEFEF" transform="translate(176,104)"/>
<path d="M0 0 C2.64 0 5.28 0 8 0 C8 2.64 8 5.28 8 8 C5.36 8 2.72 8 0 8 C0 5.36 0 2.72 0 0 Z " fill="#FDFDFD" transform="translate(168,104)"/>
<path d="M0 0 C2.64 0 5.28 0 8 0 C8 2.64 8 5.28 8 8 C5.36 8 2.72 8 0 8 C0 5.36 0 2.72 0 0 Z " fill="#EEEEEE" transform="translate(16,104)"/>
<path d="M0 0 C2.64 0 5.28 0 8 0 C8 2.64 8 5.28 8 8 C5.36 8 2.72 8 0 8 C0 5.36 0 2.72 0 0 Z " fill="#FEFEFE" transform="translate(8,104)"/>
<path d="M0 0 C2.64 0 5.28 0 8 0 C8 2.64 8 5.28 8 8 C5.36 8 2.72 8 0 8 C0 5.36 0 2.72 0 0 Z " fill="#EEEEEE" transform="translate(0,104)"/>
<path d="M0 0 C2.64 0 5.28 0 8 0 C8 2.64 8 5.28 8 8 C5.36 8 2.72 8 0 8 C0 5.36 0 2.72 0 0 Z " fill="#EEEEEE" transform="translate(184,96)"/>
<path d="M0 0 C2.64 0 5.28 0 8 0 C8 2.64 8 5.28 8 8 C5.36 8 2.72 8 0 8 C0 5.36 0 2.72 0 0 Z " fill="#FDFDFD" transform="translate(176,96)"/>
<path d="M0 0 C2.64 0 5.28 0 8 0 C8 2.64 8 5.28 8 8 C5.36 8 2.72 8 0 8 C0 5.36 0 2.72 0 0 Z " fill="#EEEEEE" transform="translate(168,96)"/>
<path d="M0 0 C2.64 0 5.28 0 8 0 C8 2.64 8 5.28 8 8 C5.36 8 2.72 8 0 8 C0 5.36 0 2.72 0 0 Z " fill="#FDFDFD" transform="translate(160,96)"/>
<path d="M0 0 C2.64 0 5.28 0 8 0 C8 2.64 8 5.28 8 8 C5.36 8 2.72 8 0 8 C0 5.36 0 2.72 0 0 Z " fill="#FDFDFD" transform="translate(16,96)"/>
<path d="M0 0 C2.64 0 5.28 0 8 0 C8 2.64 8 5.28 8 8 C5.36 8 2.72 8 0 8 C0 5.36 0 2.72 0 0 Z " fill="#EEEEEE" transform="translate(8,96)"/>
<path d="M0 0 C2.64 0 5.28 0 8 0 C8 2.64 8 5.28 8 8 C5.36 8 2.72 8 0 8 C0 5.36 0 2.72 0 0 Z " fill="#FEFEFE" transform="translate(0,96)"/>
<path d="M0 0 C2.64 0 5.28 0 8 0 C8 2.64 8 5.28 8 8 C5.36 8 2.72 8 0 8 C0 5.36 0 2.72 0 0 Z " fill="#FEFEFE" transform="translate(184,88)"/>
<path d="M0 0 C2.64 0 5.28 0 8 0 C8 2.64 8 5.28 8 8 C5.36 8 2.72 8 0 8 C0 5.36 0 2.72 0 0 Z " fill="#EEEEEE" transform="translate(176,88)"/>
<path d="M0 0 C2.64 0 5.28 0 8 0 C8 2.64 8 5.28 8 8 C5.36 8 2.72 8 0 8 C0 5.36 0 2.72 0 0 Z " fill="#FDFDFD" transform="translate(168,88)"/>
<path d="M0 0 C2.64 0 5.28 0 8 0 C8 2.64 8 5.28 8 8 C5.36 8 2.72 8 0 8 C0 5.36 0 2.72 0 0 Z " fill="#EEEEEE" transform="translate(160,88)"/>
<path d="M0 0 C2.64 0 5.28 0 8 0 C8 2.64 8 5.28 8 8 C5.36 8 2.72 8 0 8 C0 5.36 0 2.72 0 0 Z " fill="#FDFDFD" transform="translate(152,88)"/>
<path d="M0 0 C2.64 0 5.28 0 8 0 C8 2.64 8 5.28 8 8 C5.36 8 2.72 8 0 8 C0 5.36 0 2.72 0 0 Z " fill="#EEEEEE" transform="translate(144,88)"/>
<path d="M0 0 C2.64 0 5.28 0 8 0 C8 2.64 8 5.28 8 8 C5.36 8 2.72 8 0 8 C0 5.36 0 2.72 0 0 Z " fill="#FDFDFD" transform="translate(136,88)"/>
<path d="M0 0 C2.64 0 5.28 0 8 0 C8 2.64 8 5.28 8 8 C5.36 8 2.72 8 0 8 C0 5.36 0 2.72 0 0 Z " fill="#EEEEEE" transform="translate(128,88)"/>
<path d="M0 0 C2.64 0 5.28 0 8 0 C8 2.64 8 5.28 8 8 C5.36 8 2.72 8 0 8 C0 5.36 0 2.72 0 0 Z " fill="#FDFDFD" transform="translate(104,88)"/>
<path d="M0 0 C2.64 0 5.28 0 8 0 C8 2.64 8 5.28 8 8 C5.36 8 2.72 8 0 8 C0 5.36 0 2.72 0 0 Z " fill="#FDFDFD" transform="translate(72,88)"/>
<path d="M0 0 C2.64 0 5.28 0 8 0 C8 2.64 8 5.28 8 8 C5.36 8 2.72 8 0 8 C0 5.36 0 2.72 0 0 Z " fill="#EEEEEE" transform="translate(64,88)"/>
<path d="M0 0 C2.64 0 5.28 0 8 0 C8 2.64 8 5.28 8 8 C5.36 8 2.72 8 0 8 C0 5.36 0 2.72 0 0 Z " fill="#FDFDFD" transform="translate(56,88)"/>
<path d="M0 0 C2.64 0 5.28 0 8 0 C8 2.64 8 5.28 8 8 C5.36 8 2.72 8 0 8 C0 5.36 0 2.72 0 0 Z " fill="#EEEEEE" transform="translate(48,88)"/>
<path d="M0 0 C2.64 0 5.28 0 8 0 C8 2.64 8 5.28 8 8 C5.36 8 2.72 8 0 8 C0 5.36 0 2.72 0 0 Z " fill="#FDFDFD" transform="translate(40,88)"/>
<path d="M0 0 C2.64 0 5.28 0 8 0 C8 2.64 8 5.28 8 8 C5.36 8 2.72 8 0 8 C0 5.36 0 2.72 0 0 Z " fill="#EEEEEE" transform="translate(32,88)"/>
<path d="M0 0 C2.64 0 5.28 0 8 0 C8 2.64 8 5.28 8 8 C5.36 8 2.72 8 0 8 C0 5.36 0 2.72 0 0 Z " fill="#FDFDFD" transform="translate(24,88)"/>
<path d="M0 0 C2.64 0 5.28 0 8 0 C8 2.64 8 5.28 8 8 C5.36 8 2.72 8 0 8 C0 5.36 0 2.72 0 0 Z " fill="#EEEEEE" transform="translate(16,88)"/>
<path d="M0 0 C2.64 0 5.28 0 8 0 C8 2.64 8 5.28 8 8 C5.36 8 2.72 8 0 8 C0 5.36 0 2.72 0 0 Z " fill="#FDFDFD" transform="translate(8,88)"/>
<path d="M0 0 C2.64 0 5.28 0 8 0 C8 2.64 8 5.28 8 8 C5.36 8 2.72 8 0 8 C0 5.36 0 2.72 0 0 Z " fill="#EEEEEE" transform="translate(0,88)"/>
<path d="M0 0 C2.64 0 5.28 0 8 0 C8 2.64 8 5.28 8 8 C5.36 8 2.72 8 0 8 C0 5.36 0 2.72 0 0 Z " fill="#EEEEEE" transform="translate(184,80)"/>
<path d="M0 0 C2.64 0 5.28 0 8 0 C8 2.64 8 5.28 8 8 C5.36 8 2.72 8 0 8 C0 5.36 0 2.72 0 0 Z " fill="#FEFEFE" transform="translate(176,80)"/>
<path d="M0 0 C2.64 0 5.28 0 8 0 C8 2.64 8 5.28 8 8 C5.36 8 2.72 8 0 8 C0 5.36 0 2.72 0 0 Z " fill="#EEEEEE" transform="translate(168,80)"/>
<path d="M0 0 C2.64 0 5.28 0 8 0 C8 2.64 8 5.28 8 8 C5.36 8 2.72 8 0 8 C0 5.36 0 2.72 0 0 Z " fill="#FDFDFD" transform="translate(160,80)"/>
<path d="M0 0 C2.64 0 5.28 0 8 0 C8 2.64 8 5.28 8 8 C5.36 8 2.72 8 0 8 C0 5.36 0 2.72 0 0 Z " fill="#EFEFEF" transform="translate(152,80)"/>
<path d="M0 0 C2.64 0 5.28 0 8 0 C8 2.64 8 5.28 8 8 C5.36 8 2.72 8 0 8 C0 5.36 0 2.72 0 0 Z " fill="#FDFDFD" transform="translate(144,80)"/>
<path d="M0 0 C2.64 0 5.28 0 8 0 C8 2.64 8 5.28 8 8 C5.36 8 2.72 8 0 8 C0 5.36 0 2.72 0 0 Z " fill="#EEEEEE" transform="translate(136,80)"/>
<path d="M0 0 C2.64 0 5.28 0 8 0 C8 2.64 8 5.28 8 8 C5.36 8 2.72 8 0 8 C0 5.36 0 2.72 0 0 Z " fill="#FEFEFE" transform="translate(128,80)"/>
<path d="M0 0 C2.64 0 5.28 0 8 0 C8 2.64 8 5.28 8 8 C5.36 8 2.72 8 0 8 C0 5.36 0 2.72 0 0 Z " fill="#FDFDFD" transform="translate(112,80)"/>
<path d="M0 0 C2.64 0 5.28 0 8 0 C8 2.64 8 5.28 8 8 C5.36 8 2.72 8 0 8 C0 5.36 0 2.72 0 0 Z " fill="#FDFDFD" transform="translate(64,80)"/>
<path d="M0 0 C2.64 0 5.28 0 8 0 C8 2.64 8 5.28 8 8 C5.36 8 2.72 8 0 8 C0 5.36 0 2.72 0 0 Z " fill="#EFEFEF" transform="translate(56,80)"/>
<path d="M0 0 C2.64 0 5.28 0 8 0 C8 2.64 8 5.28 8 8 C5.36 8 2.72 8 0 8 C0 5.36 0 2.72 0 0 Z " fill="#FDFDFD" transform="translate(48,80)"/>
<path d="M0 0 C2.64 0 5.28 0 8 0 C8 2.64 8 5.28 8 8 C5.36 8 2.72 8 0 8 C0 5.36 0 2.72 0 0 Z " fill="#EEEEEE" transform="translate(40,80)"/>
<path d="M0 0 C2.64 0 5.28 0 8 0 C8 2.64 8 5.28 8 8 C5.36 8 2.72 8 0 8 C0 5.36 0 2.72 0 0 Z " fill="#FEFEFE" transform="translate(32,80)"/>
<path d="M0 0 C2.64 0 5.28 0 8 0 C8 2.64 8 5.28 8 8 C5.36 8 2.72 8 0 8 C0 5.36 0 2.72 0 0 Z " fill="#EEEEEE" transform="translate(24,80)"/>
<path d="M0 0 C2.64 0 5.28 0 8 0 C8 2.64 8 5.28 8 8 C5.36 8 2.72 8 0 8 C0 5.36 0 2.72 0 0 Z " fill="#FDFDFD" transform="translate(16,80)"/>
<path d="M0 0 C2.64 0 5.28 0 8 0 C8 2.64 8 5.28 8 8 C5.36 8 2.72 8 0 8 C0 5.36 0 2.72 0 0 Z " fill="#EFEFEF" transform="translate(8,80)"/>
<path d="M0 0 C2.64 0 5.28 0 8 0 C8 2.64 8 5.28 8 8 C5.36 8 2.72 8 0 8 C0 5.36 0 2.72 0 0 Z " fill="#FEFEFE" transform="translate(0,80)"/>
<path d="M0 0 C2.64 0 5.28 0 8 0 C8 2.64 8 5.28 8 8 C5.36 8 2.72 8 0 8 C0 5.36 0 2.72 0 0 Z " fill="#FEFEFE" transform="translate(184,72)"/>
<path d="M0 0 C2.64 0 5.28 0 8 0 C8 2.64 8 5.28 8 8 C5.36 8 2.72 8 0 8 C0 5.36 0 2.72 0 0 Z " fill="#EEEEEE" transform="translate(176,72)"/>
<path d="M0 0 C2.64 0 5.28 0 8 0 C8 2.64 8 5.28 8 8 C5.36 8 2.72 8 0 8 C0 5.36 0 2.72 0 0 Z " fill="#FDFDFD" transform="translate(168,72)"/>
<path d="M0 0 C2.64 0 5.28 0 8 0 C8 2.64 8 5.28 8 8 C5.36 8 2.72 8 0 8 C0 5.36 0 2.72 0 0 Z " fill="#EEEEEE" transform="translate(160,72)"/>
<path d="M0 0 C2.64 0 5.28 0 8 0 C8 2.64 8 5.28 8 8 C5.36 8 2.72 8 0 8 C0 5.36 0 2.72 0 0 Z " fill="#FDFDFD" transform="translate(152,72)"/>
<path d="M0 0 C2.64 0 5.28 0 8 0 C8 2.64 8 5.28 8 8 C5.36 8 2.72 8 0 8 C0 5.36 0 2.72 0 0 Z " fill="#EEEEEE" transform="translate(144,72)"/>
<path d="M0 0 C2.64 0 5.28 0 8 0 C8 2.64 8 5.28 8 8 C5.36 8 2.72 8 0 8 C0 5.36 0 2.72 0 0 Z " fill="#FDFDFD" transform="translate(136,72)"/>
<path d="M0 0 C2.64 0 5.28 0 8 0 C8 2.64 8 5.28 8 8 C5.36 8 2.72 8 0 8 C0 5.36 0 2.72 0 0 Z " fill="#EEEEEE" transform="translate(128,72)"/>
<path d="M0 0 C2.64 0 5.28 0 8 0 C8 2.64 8 5.28 8 8 C5.36 8 2.72 8 0 8 C0 5.36 0 2.72 0 0 Z " fill="#FDFDFD" transform="translate(120,72)"/>
<path d="M0 0 C2.64 0 5.28 0 8 0 C8 2.64 8 5.28 8 8 C5.36 8 2.72 8 0 8 C0 5.36 0 2.72 0 0 Z " fill="#FDFCFC" transform="translate(72,72)"/>
<path d="M0 0 C2.64 0 5.28 0 8 0 C8 2.64 8 5.28 8 8 C5.36 8 2.72 8 0 8 C0 5.36 0 2.72 0 0 Z " fill="#EEEEEE" transform="translate(64,72)"/>
<path d="M0 0 C2.64 0 5.28 0 8 0 C8 2.64 8 5.28 8 8 C5.36 8 2.72 8 0 8 C0 5.36 0 2.72 0 0 Z " fill="#FDFDFD" transform="translate(56,72)"/>
<path d="M0 0 C2.64 0 5.28 0 8 0 C8 2.64 8 5.28 8 8 C5.36 8 2.72 8 0 8 C0 5.36 0 2.72 0 0 Z " fill="#EEEEEE" transform="translate(48,72)"/>
<path d="M0 0 C2.64 0 5.28 0 8 0 C8 2.64 8 5.28 8 8 C5.36 8 2.72 8 0 8 C0 5.36 0 2.72 0 0 Z " fill="#FDFDFD" transform="translate(40,72)"/>
<path d="M0 0 C2.64 0 5.28 0 8 0 C8 2.64 8 5.28 8 8 C5.36 8 2.72 8 0 8 C0 5.36 0 2.72 0 0 Z " fill="#EEEEEE" transform="translate(32,72)"/>
<path d="M0 0 C2.64 0 5.28 0 8 0 C8 2.64 8 5.28 8 8 C5.36 8 2.72 8 0 8 C0 5.36 0 2.72 0 0 Z " fill="#FDFDFD" transform="translate(24,72)"/>
<path d="M0 0 C2.64 0 5.28 0 8 0 C8 2.64 8 5.28 8 8 C5.36 8 2.72 8 0 8 C0 5.36 0 2.72 0 0 Z " fill="#EEEEEE" transform="translate(16,72)"/>
<path d="M0 0 C2.64 0 5.28 0 8 0 C8 2.64 8 5.28 8 8 C5.36 8 2.72 8 0 8 C0 5.36 0 2.72 0 0 Z " fill="#FDFDFD" transform="translate(8,72)"/>
<path d="M0 0 C2.64 0 5.28 0 8 0 C8 2.64 8 5.28 8 8 C5.36 8 2.72 8 0 8 C0 5.36 0 2.72 0 0 Z " fill="#EEEEEE" transform="translate(0,72)"/>
<path d="M0 0 C2.64 0 5.28 0 8 0 C8 2.64 8 5.28 8 8 C5.36 8 2.72 8 0 8 C0 5.36 0 2.72 0 0 Z " fill="#EEEEEE" transform="translate(184,64)"/>
<path d="M0 0 C2.64 0 5.28 0 8 0 C8 2.64 8 5.28 8 8 C5.36 8 2.72 8 0 8 C0 5.36 0 2.72 0 0 Z " fill="#FDFDFD" transform="translate(176,64)"/>
<path d="M0 0 C2.64 0 5.28 0 8 0 C8 2.64 8 5.28 8 8 C5.36 8 2.72 8 0 8 C0 5.36 0 2.72 0 0 Z " fill="#EEEEEE" transform="translate(168,64)"/>
<path d="M0 0 C2.64 0 5.28 0 8 0 C8 2.64 8 5.28 8 8 C5.36 8 2.72 8 0 8 C0 5.36 0 2.72 0 0 Z " fill="#FDFDFD" transform="translate(160,64)"/>
<path d="M0 0 C2.64 0 5.28 0 8 0 C8 2.64 8 5.28 8 8 C5.36 8 2.72 8 0 8 C0 5.36 0 2.72 0 0 Z " fill="#EEEEEE" transform="translate(152,64)"/>
<path d="M0 0 C2.64 0 5.28 0 8 0 C8 2.64 8 5.28 8 8 C5.36 8 2.72 8 0 8 C0 5.36 0 2.72 0 0 Z " fill="#FDFDFD" transform="translate(144,64)"/>
<path d="M0 0 C2.64 0 5.28 0 8 0 C8 2.64 8 5.28 8 8 C5.36 8 2.72 8 0 8 C0 5.36 0 2.72 0 0 Z " fill="#EEEEEE" transform="translate(136,64)"/>
<path d="M0 0 C2.64 0 5.28 0 8 0 C8 2.64 8 5.28 8 8 C5.36 8 2.72 8 0 8 C0 5.36 0 2.72 0 0 Z " fill="#FDFDFD" transform="translate(128,64)"/>
<path d="M0 0 C2.64 0 5.28 0 8 0 C8 2.64 8 5.28 8 8 C5.36 8 2.72 8 0 8 C0 5.36 0 2.72 0 0 Z " fill="#FDFDFD" transform="translate(64,64)"/>
<path d="M0 0 C2.64 0 5.28 0 8 0 C8 2.64 8 5.28 8 8 C5.36 8 2.72 8 0 8 C0 5.36 0 2.72 0 0 Z " fill="#EEEEEE" transform="translate(56,64)"/>
<path d="M0 0 C2.64 0 5.28 0 8 0 C8 2.64 8 5.28 8 8 C5.36 8 2.72 8 0 8 C0 5.36 0 2.72 0 0 Z " fill="#FDFDFD" transform="translate(48,64)"/>
<path d="M0 0 C2.64 0 5.28 0 8 0 C8 2.64 8 5.28 8 8 C5.36 8 2.72 8 0 8 C0 5.36 0 2.72 0 0 Z " fill="#EEEEEE" transform="translate(40,64)"/>
<path d="M0 0 C2.64 0 5.28 0 8 0 C8 2.64 8 5.28 8 8 C5.36 8 2.72 8 0 8 C0 5.36 0 2.72 0 0 Z " fill="#FDFDFD" transform="translate(32,64)"/>
<path d="M0 0 C2.64 0 5.28 0 8 0 C8 2.64 8 5.28 8 8 C5.36 8 2.72 8 0 8 C0 5.36 0 2.72 0 0 Z " fill="#EEEEEE" transform="translate(24,64)"/>
<path d="M0 0 C2.64 0 5.28 0 8 0 C8 2.64 8 5.28 8 8 C5.36 8 2.72 8 0 8 C0 5.36 0 2.72 0 0 Z " fill="#FDFDFD" transform="translate(16,64)"/>
<path d="M0 0 C2.64 0 5.28 0 8 0 C8 2.64 8 5.28 8 8 C5.36 8 2.72 8 0 8 C0 5.36 0 2.72 0 0 Z " fill="#EEEEEE" transform="translate(8,64)"/>
<path d="M0 0 C2.64 0 5.28 0 8 0 C8 2.64 8 5.28 8 8 C5.36 8 2.72 8 0 8 C0 5.36 0 2.72 0 0 Z " fill="#FEFEFE" transform="translate(0,64)"/>
<path d="M0 0 C2.64 0 5.28 0 8 0 C8 2.64 8 5.28 8 8 C5.36 8 2.72 8 0 8 C0 5.36 0 2.72 0 0 Z " fill="#FEFEFE" transform="translate(184,56)"/>
<path d="M0 0 C2.64 0 5.28 0 8 0 C8 2.64 8 5.28 8 8 C5.36 8 2.72 8 0 8 C0 5.36 0 2.72 0 0 Z " fill="#EFEFEF" transform="translate(176,56)"/>
<path d="M0 0 C2.64 0 5.28 0 8 0 C8 2.64 8 5.28 8 8 C5.36 8 2.72 8 0 8 C0 5.36 0 2.72 0 0 Z " fill="#FDFDFD" transform="translate(168,56)"/>
<path d="M0 0 C2.64 0 5.28 0 8 0 C8 2.64 8 5.28 8 8 C5.36 8 2.72 8 0 8 C0 5.36 0 2.72 0 0 Z " fill="#EEEEEE" transform="translate(160,56)"/>
<path d="M0 0 C2.64 0 5.28 0 8 0 C8 2.64 8 5.28 8 8 C5.36 8 2.72 8 0 8 C0 5.36 0 2.72 0 0 Z " fill="#FEFEFE" transform="translate(152,56)"/>
<path d="M0 0 C2.64 0 5.28 0 8 0 C8 2.64 8 5.28 8 8 C5.36 8 2.72 8 0 8 C0 5.36 0 2.72 0 0 Z " fill="#EEEEEE" transform="translate(144,56)"/>
<path d="M0 0 C2.64 0 5.28 0 8 0 C8 2.64 8 5.28 8 8 C5.36 8 2.72 8 0 8 C0 5.36 0 2.72 0 0 Z " fill="#FDFDFD" transform="translate(136,56)"/>
<path d="M0 0 C2.64 0 5.28 0 8 0 C8 2.64 8 5.28 8 8 C5.36 8 2.72 8 0 8 C0 5.36 0 2.72 0 0 Z " fill="#EFEFEF" transform="translate(128,56)"/>
<path d="M0 0 C2.64 0 5.28 0 8 0 C8 2.64 8 5.28 8 8 C5.36 8 2.72 8 0 8 C0 5.36 0 2.72 0 0 Z " fill="#FEFEFE" transform="translate(56,56)"/>
<path d="M0 0 C2.64 0 5.28 0 8 0 C8 2.64 8 5.28 8 8 C5.36 8 2.72 8 0 8 C0 5.36 0 2.72 0 0 Z " fill="#EEEEEE" transform="translate(48,56)"/>
<path d="M0 0 C2.64 0 5.28 0 8 0 C8 2.64 8 5.28 8 8 C5.36 8 2.72 8 0 8 C0 5.36 0 2.72 0 0 Z " fill="#FDFDFD" transform="translate(40,56)"/>
<path d="M0 0 C2.64 0 5.28 0 8 0 C8 2.64 8 5.28 8 8 C5.36 8 2.72 8 0 8 C0 5.36 0 2.72 0 0 Z " fill="#EFEFEF" transform="translate(32,56)"/>
<path d="M0 0 C2.64 0 5.28 0 8 0 C8 2.64 8 5.28 8 8 C5.36 8 2.72 8 0 8 C0 5.36 0 2.72 0 0 Z " fill="#FDFDFD" transform="translate(24,56)"/>
<path d="M0 0 C2.64 0 5.28 0 8 0 C8 2.64 8 5.28 8 8 C5.36 8 2.72 8 0 8 C0 5.36 0 2.72 0 0 Z " fill="#EEEEEE" transform="translate(16,56)"/>
<path d="M0 0 C2.64 0 5.28 0 8 0 C8 2.64 8 5.28 8 8 C5.36 8 2.72 8 0 8 C0 5.36 0 2.72 0 0 Z " fill="#FEFEFE" transform="translate(8,56)"/>
<path d="M0 0 C2.64 0 5.28 0 8 0 C8 2.64 8 5.28 8 8 C5.36 8 2.72 8 0 8 C0 5.36 0 2.72 0 0 Z " fill="#EEEEEE" transform="translate(0,56)"/>
<path d="M0 0 C2.64 0 5.28 0 8 0 C8 2.64 8 5.28 8 8 C5.36 8 2.72 8 0 8 C0 5.36 0 2.72 0 0 Z " fill="#EEEEEE" transform="translate(184,48)"/>
<path d="M0 0 C2.64 0 5.28 0 8 0 C8 2.64 8 5.28 8 8 C5.36 8 2.72 8 0 8 C0 5.36 0 2.72 0 0 Z " fill="#FDFDFD" transform="translate(176,48)"/>
<path d="M0 0 C2.64 0 5.28 0 8 0 C8 2.64 8 5.28 8 8 C5.36 8 2.72 8 0 8 C0 5.36 0 2.72 0 0 Z " fill="#EEEEEE" transform="translate(168,48)"/>
<path d="M0 0 C2.64 0 5.28 0 8 0 C8 2.64 8 5.28 8 8 C5.36 8 2.72 8 0 8 C0 5.36 0 2.72 0 0 Z " fill="#FDFDFD" transform="translate(160,48)"/>
<path d="M0 0 C2.64 0 5.28 0 8 0 C8 2.64 8 5.28 8 8 C5.36 8 2.72 8 0 8 C0 5.36 0 2.72 0 0 Z " fill="#EEEEEE" transform="translate(152,48)"/>
<path d="M0 0 C2.64 0 5.28 0 8 0 C8 2.64 8 5.28 8 8 C5.36 8 2.72 8 0 8 C0 5.36 0 2.72 0 0 Z " fill="#FDFDFD" transform="translate(144,48)"/>
<path d="M0 0 C2.64 0 5.28 0 8 0 C8 2.64 8 5.28 8 8 C5.36 8 2.72 8 0 8 C0 5.36 0 2.72 0 0 Z " fill="#EEEEEE" transform="translate(136,48)"/>
<path d="M0 0 C2.64 0 5.28 0 8 0 C8 2.64 8 5.28 8 8 C5.36 8 2.72 8 0 8 C0 5.36 0 2.72 0 0 Z " fill="#FDFDFD" transform="translate(128,48)"/>
<path d="M0 0 C2.64 0 5.28 0 8 0 C8 2.64 8 5.28 8 8 C5.36 8 2.72 8 0 8 C0 5.36 0 2.72 0 0 Z " fill="#FDFDFD" transform="translate(48,48)"/>
<path d="M0 0 C2.64 0 5.28 0 8 0 C8 2.64 8 5.28 8 8 C5.36 8 2.72 8 0 8 C0 5.36 0 2.72 0 0 Z " fill="#EEEEEE" transform="translate(40,48)"/>
<path d="M0 0 C2.64 0 5.28 0 8 0 C8 2.64 8 5.28 8 8 C5.36 8 2.72 8 0 8 C0 5.36 0 2.72 0 0 Z " fill="#FDFDFD" transform="translate(32,48)"/>
<path d="M0 0 C2.64 0 5.28 0 8 0 C8 2.64 8 5.28 8 8 C5.36 8 2.72 8 0 8 C0 5.36 0 2.72 0 0 Z " fill="#EEEEEE" transform="translate(24,48)"/>
<path d="M0 0 C2.64 0 5.28 0 8 0 C8 2.64 8 5.28 8 8 C5.36 8 2.72 8 0 8 C0 5.36 0 2.72 0 0 Z " fill="#FDFDFD" transform="translate(16,48)"/>
<path d="M0 0 C2.64 0 5.28 0 8 0 C8 2.64 8 5.28 8 8 C5.36 8 2.72 8 0 8 C0 5.36 0 2.72 0 0 Z " fill="#EEEEEE" transform="translate(8,48)"/>
<path d="M0 0 C2.64 0 5.28 0 8 0 C8 2.64 8 5.28 8 8 C5.36 8 2.72 8 0 8 C0 5.36 0 2.72 0 0 Z " fill="#FEFEFE" transform="translate(0,48)"/>
<path d="M0 0 C2.64 0 5.28 0 8 0 C8 2.64 8 5.28 8 8 C5.36 8 2.72 8 0 8 C0 5.36 0 2.72 0 0 Z " fill="#FEFEFE" transform="translate(184,40)"/>
<path d="M0 0 C2.64 0 5.28 0 8 0 C8 2.64 8 5.28 8 8 C5.36 8 2.72 8 0 8 C0 5.36 0 2.72 0 0 Z " fill="#EEEEEE" transform="translate(176,40)"/>
<path d="M0 0 C2.64 0 5.28 0 8 0 C8 2.64 8 5.28 8 8 C5.36 8 2.72 8 0 8 C0 5.36 0 2.72 0 0 Z " fill="#FDFDFD" transform="translate(168,40)"/>
<path d="M0 0 C2.64 0 5.28 0 8 0 C8 2.64 8 5.28 8 8 C5.36 8 2.72 8 0 8 C0 5.36 0 2.72 0 0 Z " fill="#EEEEEE" transform="translate(160,40)"/>
<path d="M0 0 C2.64 0 5.28 0 8 0 C8 2.64 8 5.28 8 8 C5.36 8 2.72 8 0 8 C0 5.36 0 2.72 0 0 Z " fill="#FDFDFD" transform="translate(152,40)"/>
<path d="M0 0 C2.64 0 5.28 0 8 0 C8 2.64 8 5.28 8 8 C5.36 8 2.72 8 0 8 C0 5.36 0 2.72 0 0 Z " fill="#EEEEEE" transform="translate(144,40)"/>
<path d="M0 0 C2.64 0 5.28 0 8 0 C8 2.64 8 5.28 8 8 C5.36 8 2.72 8 0 8 C0 5.36 0 2.72 0 0 Z " fill="#FDFDFD" transform="translate(136,40)"/>
<path d="M0 0 C2.64 0 5.28 0 8 0 C8 2.64 8 5.28 8 8 C5.36 8 2.72 8 0 8 C0 5.36 0 2.72 0 0 Z " fill="#EEEEEE" transform="translate(128,40)"/>
<path d="M0 0 C2.64 0 5.28 0 8 0 C8 2.64 8 5.28 8 8 C5.36 8 2.72 8 0 8 C0 5.36 0 2.72 0 0 Z " fill="#FDFDFD" transform="translate(56,40)"/>
<path d="M0 0 C2.64 0 5.28 0 8 0 C8 2.64 8 5.28 8 8 C5.36 8 2.72 8 0 8 C0 5.36 0 2.72 0 0 Z " fill="#EEEEEE" transform="translate(48,40)"/>
<path d="M0 0 C2.64 0 5.28 0 8 0 C8 2.64 8 5.28 8 8 C5.36 8 2.72 8 0 8 C0 5.36 0 2.72 0 0 Z " fill="#FDFDFD" transform="translate(40,40)"/>
<path d="M0 0 C2.64 0 5.28 0 8 0 C8 2.64 8 5.28 8 8 C5.36 8 2.72 8 0 8 C0 5.36 0 2.72 0 0 Z " fill="#EEEEEE" transform="translate(32,40)"/>
<path d="M0 0 C2.64 0 5.28 0 8 0 C8 2.64 8 5.28 8 8 C5.36 8 2.72 8 0 8 C0 5.36 0 2.72 0 0 Z " fill="#FDFDFD" transform="translate(24,40)"/>
<path d="M0 0 C2.64 0 5.28 0 8 0 C8 2.64 8 5.28 8 8 C5.36 8 2.72 8 0 8 C0 5.36 0 2.72 0 0 Z " fill="#EEEEEE" transform="translate(16,40)"/>
<path d="M0 0 C2.64 0 5.28 0 8 0 C8 2.64 8 5.28 8 8 C5.36 8 2.72 8 0 8 C0 5.36 0 2.72 0 0 Z " fill="#FDFDFD" transform="translate(8,40)"/>
<path d="M0 0 C2.64 0 5.28 0 8 0 C8 2.64 8 5.28 8 8 C5.36 8 2.72 8 0 8 C0 5.36 0 2.72 0 0 Z " fill="#EEEEEE" transform="translate(0,40)"/>
<path d="M0 0 C2.64 0 5.28 0 8 0 C8 2.64 8 5.28 8 8 C5.36 8 2.72 8 0 8 C0 5.36 0 2.72 0 0 Z " fill="#EEEEEE" transform="translate(184,32)"/>
<path d="M0 0 C2.64 0 5.28 0 8 0 C8 2.64 8 5.28 8 8 C5.36 8 2.72 8 0 8 C0 5.36 0 2.72 0 0 Z " fill="#FEFEFE" transform="translate(176,32)"/>
<path d="M0 0 C2.64 0 5.28 0 8 0 C8 2.64 8 5.28 8 8 C5.36 8 2.72 8 0 8 C0 5.36 0 2.72 0 0 Z " fill="#EEEEEE" transform="translate(168,32)"/>
<path d="M0 0 C2.64 0 5.28 0 8 0 C8 2.64 8 5.28 8 8 C5.36 8 2.72 8 0 8 C0 5.36 0 2.72 0 0 Z " fill="#FDFDFD" transform="translate(160,32)"/>
<path d="M0 0 C2.64 0 5.28 0 8 0 C8 2.64 8 5.28 8 8 C5.36 8 2.72 8 0 8 C0 5.36 0 2.72 0 0 Z " fill="#EFEFEF" transform="translate(152,32)"/>
<path d="M0 0 C2.64 0 5.28 0 8 0 C8 2.64 8 5.28 8 8 C5.36 8 2.72 8 0 8 C0 5.36 0 2.72 0 0 Z " fill="#FDFDFD" transform="translate(144,32)"/>
<path d="M0 0 C2.64 0 5.28 0 8 0 C8 2.64 8 5.28 8 8 C5.36 8 2.72 8 0 8 C0 5.36 0 2.72 0 0 Z " fill="#EEEEEE" transform="translate(136,32)"/>
<path d="M0 0 C2.64 0 5.28 0 8 0 C8 2.64 8 5.28 8 8 C5.36 8 2.72 8 0 8 C0 5.36 0 2.72 0 0 Z " fill="#FEFEFE" transform="translate(128,32)"/>
<path d="M0 0 C2.64 0 5.28 0 8 0 C8 2.64 8 5.28 8 8 C5.36 8 2.72 8 0 8 C0 5.36 0 2.72 0 0 Z " fill="#EEEEEE" transform="translate(120,32)"/>
<path d="M0 0 C2.64 0 5.28 0 8 0 C8 2.64 8 5.28 8 8 C5.36 8 2.72 8 0 8 C0 5.36 0 2.72 0 0 Z " fill="#FDFDFD" transform="translate(64,32)"/>
<path d="M0 0 C2.64 0 5.28 0 8 0 C8 2.64 8 5.28 8 8 C5.36 8 2.72 8 0 8 C0 5.36 0 2.72 0 0 Z " fill="#EFEFEF" transform="translate(56,32)"/>
<path d="M0 0 C2.64 0 5.28 0 8 0 C8 2.64 8 5.28 8 8 C5.36 8 2.72 8 0 8 C0 5.36 0 2.72 0 0 Z " fill="#FDFDFD" transform="translate(48,32)"/>
<path d="M0 0 C2.64 0 5.28 0 8 0 C8 2.64 8 5.28 8 8 C5.36 8 2.72 8 0 8 C0 5.36 0 2.72 0 0 Z " fill="#EEEEEE" transform="translate(40,32)"/>
<path d="M0 0 C2.64 0 5.28 0 8 0 C8 2.64 8 5.28 8 8 C5.36 8 2.72 8 0 8 C0 5.36 0 2.72 0 0 Z " fill="#FEFEFE" transform="translate(32,32)"/>
<path d="M0 0 C2.64 0 5.28 0 8 0 C8 2.64 8 5.28 8 8 C5.36 8 2.72 8 0 8 C0 5.36 0 2.72 0 0 Z " fill="#EEEEEE" transform="translate(24,32)"/>
<path d="M0 0 C2.64 0 5.28 0 8 0 C8 2.64 8 5.28 8 8 C5.36 8 2.72 8 0 8 C0 5.36 0 2.72 0 0 Z " fill="#FDFDFD" transform="translate(16,32)"/>
<path d="M0 0 C2.64 0 5.28 0 8 0 C8 2.64 8 5.28 8 8 C5.36 8 2.72 8 0 8 C0 5.36 0 2.72 0 0 Z " fill="#EFEFEF" transform="translate(8,32)"/>
<path d="M0 0 C2.64 0 5.28 0 8 0 C8 2.64 8 5.28 8 8 C5.36 8 2.72 8 0 8 C0 5.36 0 2.72 0 0 Z " fill="#FEFEFE" transform="translate(0,32)"/>
<path d="M0 0 C2.64 0 5.28 0 8 0 C8 2.64 8 5.28 8 8 C5.36 8 2.72 8 0 8 C0 5.36 0 2.72 0 0 Z " fill="#FEFEFE" transform="translate(184,24)"/>
<path d="M0 0 C2.64 0 5.28 0 8 0 C8 2.64 8 5.28 8 8 C5.36 8 2.72 8 0 8 C0 5.36 0 2.72 0 0 Z " fill="#EEEEEE" transform="translate(176,24)"/>
<path d="M0 0 C2.64 0 5.28 0 8 0 C8 2.64 8 5.28 8 8 C5.36 8 2.72 8 0 8 C0 5.36 0 2.72 0 0 Z " fill="#FDFDFD" transform="translate(168,24)"/>
<path d="M0 0 C2.64 0 5.28 0 8 0 C8 2.64 8 5.28 8 8 C5.36 8 2.72 8 0 8 C0 5.36 0 2.72 0 0 Z " fill="#EEEEEE" transform="translate(160,24)"/>
<path d="M0 0 C2.64 0 5.28 0 8 0 C8 2.64 8 5.28 8 8 C5.36 8 2.72 8 0 8 C0 5.36 0 2.72 0 0 Z " fill="#FDFDFD" transform="translate(152,24)"/>
<path d="M0 0 C2.64 0 5.28 0 8 0 C8 2.64 8 5.28 8 8 C5.36 8 2.72 8 0 8 C0 5.36 0 2.72 0 0 Z " fill="#EEEEEE" transform="translate(144,24)"/>
<path d="M0 0 C2.64 0 5.28 0 8 0 C8 2.64 8 5.28 8 8 C5.36 8 2.72 8 0 8 C0 5.36 0 2.72 0 0 Z " fill="#FDFDFD" transform="translate(136,24)"/>
<path d="M0 0 C2.64 0 5.28 0 8 0 C8 2.64 8 5.28 8 8 C5.36 8 2.72 8 0 8 C0 5.36 0 2.72 0 0 Z " fill="#EEEEEE" transform="translate(128,24)"/>
<path d="M0 0 C2.64 0 5.28 0 8 0 C8 2.64 8 5.28 8 8 C5.36 8 2.72 8 0 8 C0 5.36 0 2.72 0 0 Z " fill="#FDFDFD" transform="translate(120,24)"/>
<path d="M0 0 C2.64 0 5.28 0 8 0 C8 2.64 8 5.28 8 8 C5.36 8 2.72 8 0 8 C0 5.36 0 2.72 0 0 Z " fill="#EEEEEE" transform="translate(64,24)"/>
<path d="M0 0 C2.64 0 5.28 0 8 0 C8 2.64 8 5.28 8 8 C5.36 8 2.72 8 0 8 C0 5.36 0 2.72 0 0 Z " fill="#FDFDFD" transform="translate(56,24)"/>
<path d="M0 0 C2.64 0 5.28 0 8 0 C8 2.64 8 5.28 8 8 C5.36 8 2.72 8 0 8 C0 5.36 0 2.72 0 0 Z " fill="#EEEEEE" transform="translate(48,24)"/>
<path d="M0 0 C2.64 0 5.28 0 8 0 C8 2.64 8 5.28 8 8 C5.36 8 2.72 8 0 8 C0 5.36 0 2.72 0 0 Z " fill="#FDFDFD" transform="translate(40,24)"/>
<path d="M0 0 C2.64 0 5.28 0 8 0 C8 2.64 8 5.28 8 8 C5.36 8 2.72 8 0 8 C0 5.36 0 2.72 0 0 Z " fill="#EEEEEE" transform="translate(32,24)"/>
<path d="M0 0 C2.64 0 5.28 0 8 0 C8 2.64 8 5.28 8 8 C5.36 8 2.72 8 0 8 C0 5.36 0 2.72 0 0 Z " fill="#FDFDFD" transform="translate(24,24)"/>
<path d="M0 0 C2.64 0 5.28 0 8 0 C8 2.64 8 5.28 8 8 C5.36 8 2.72 8 0 8 C0 5.36 0 2.72 0 0 Z " fill="#EEEEEE" transform="translate(16,24)"/>
<path d="M0 0 C2.64 0 5.28 0 8 0 C8 2.64 8 5.28 8 8 C5.36 8 2.72 8 0 8 C0 5.36 0 2.72 0 0 Z " fill="#FDFDFD" transform="translate(8,24)"/>
<path d="M0 0 C2.64 0 5.28 0 8 0 C8 2.64 8 5.28 8 8 C5.36 8 2.72 8 0 8 C0 5.36 0 2.72 0 0 Z " fill="#EEEEEE" transform="translate(0,24)"/>
<path d="M0 0 C2.64 0 5.28 0 8 0 C8 2.64 8 5.28 8 8 C5.36 8 2.72 8 0 8 C0 5.36 0 2.72 0 0 Z " fill="#EEEEEE" transform="translate(184,16)"/>
<path d="M0 0 C2.64 0 5.28 0 8 0 C8 2.64 8 5.28 8 8 C5.36 8 2.72 8 0 8 C0 5.36 0 2.72 0 0 Z " fill="#FDFDFD" transform="translate(176,16)"/>
<path d="M0 0 C2.64 0 5.28 0 8 0 C8 2.64 8 5.28 8 8 C5.36 8 2.72 8 0 8 C0 5.36 0 2.72 0 0 Z " fill="#EEEEEE" transform="translate(168,16)"/>
<path d="M0 0 C2.64 0 5.28 0 8 0 C8 2.64 8 5.28 8 8 C5.36 8 2.72 8 0 8 C0 5.36 0 2.72 0 0 Z " fill="#FDFDFD" transform="translate(160,16)"/>
<path d="M0 0 C2.64 0 5.28 0 8 0 C8 2.64 8 5.28 8 8 C5.36 8 2.72 8 0 8 C0 5.36 0 2.72 0 0 Z " fill="#EEEEEE" transform="translate(152,16)"/>
<path d="M0 0 C2.64 0 5.28 0 8 0 C8 2.64 8 5.28 8 8 C5.36 8 2.72 8 0 8 C0 5.36 0 2.72 0 0 Z " fill="#FDFDFD" transform="translate(144,16)"/>
<path d="M0 0 C2.64 0 5.28 0 8 0 C8 2.64 8 5.28 8 8 C5.36 8 2.72 8 0 8 C0 5.36 0 2.72 0 0 Z " fill="#EEEEEE" transform="translate(136,16)"/>
<path d="M0 0 C2.64 0 5.28 0 8 0 C8 2.64 8 5.28 8 8 C5.36 8 2.72 8 0 8 C0 5.36 0 2.72 0 0 Z " fill="#FDFDFD" transform="translate(128,16)"/>
<path d="M0 0 C2.64 0 5.28 0 8 0 C8 2.64 8 5.28 8 8 C5.36 8 2.72 8 0 8 C0 5.36 0 2.72 0 0 Z " fill="#EEEEEE" transform="translate(120,16)"/>
<path d="M0 0 C2.64 0 5.28 0 8 0 C8 2.64 8 5.28 8 8 C5.36 8 2.72 8 0 8 C0 5.36 0 2.72 0 0 Z " fill="#FDFDFD" transform="translate(112,16)"/>
<path d="M0 0 C2.64 0 5.28 0 8 0 C8 2.64 8 5.28 8 8 C5.36 8 2.72 8 0 8 C0 5.36 0 2.72 0 0 Z " fill="#FDFDFD" transform="translate(64,16)"/>
<path d="M0 0 C2.64 0 5.28 0 8 0 C8 2.64 8 5.28 8 8 C5.36 8 2.72 8 0 8 C0 5.36 0 2.72 0 0 Z " fill="#EEEEEE" transform="translate(56,16)"/>
<path d="M0 0 C2.64 0 5.28 0 8 0 C8 2.64 8 5.28 8 8 C5.36 8 2.72 8 0 8 C0 5.36 0 2.72 0 0 Z " fill="#FDFDFD" transform="translate(48,16)"/>
<path d="M0 0 C2.64 0 5.28 0 8 0 C8 2.64 8 5.28 8 8 C5.36 8 2.72 8 0 8 C0 5.36 0 2.72 0 0 Z " fill="#EEEEEE" transform="translate(40,16)"/>
<path d="M0 0 C2.64 0 5.28 0 8 0 C8 2.64 8 5.28 8 8 C5.36 8 2.72 8 0 8 C0 5.36 0 2.72 0 0 Z " fill="#FDFDFD" transform="translate(32,16)"/>
<path d="M0 0 C2.64 0 5.28 0 8 0 C8 2.64 8 5.28 8 8 C5.36 8 2.72 8 0 8 C0 5.36 0 2.72 0 0 Z " fill="#EEEEEE" transform="translate(24,16)"/>
<path d="M0 0 C2.64 0 5.28 0 8 0 C8 2.64 8 5.28 8 8 C5.36 8 2.72 8 0 8 C0 5.36 0 2.72 0 0 Z " fill="#FDFDFD" transform="translate(16,16)"/>
<path d="M0 0 C2.64 0 5.28 0 8 0 C8 2.64 8 5.28 8 8 C5.36 8 2.72 8 0 8 C0 5.36 0 2.72 0 0 Z " fill="#EEEEEE" transform="translate(8,16)"/>
<path d="M0 0 C2.64 0 5.28 0 8 0 C8 2.64 8 5.28 8 8 C5.36 8 2.72 8 0 8 C0 5.36 0 2.72 0 0 Z " fill="#FEFEFE" transform="translate(0,16)"/>
<path d="M0 0 C2.64 0 5.28 0 8 0 C8 2.64 8 5.28 8 8 C5.36 8 2.72 8 0 8 C0 5.36 0 2.72 0 0 Z " fill="#FEFEFE" transform="translate(184,8)"/>
<path d="M0 0 C2.64 0 5.28 0 8 0 C8 2.64 8 5.28 8 8 C5.36 8 2.72 8 0 8 C0 5.36 0 2.72 0 0 Z " fill="#EFEFEF" transform="translate(176,8)"/>
<path d="M0 0 C2.64 0 5.28 0 8 0 C8 2.64 8 5.28 8 8 C5.36 8 2.72 8 0 8 C0 5.36 0 2.72 0 0 Z " fill="#FDFDFD" transform="translate(168,8)"/>
<path d="M0 0 C2.64 0 5.28 0 8 0 C8 2.64 8 5.28 8 8 C5.36 8 2.72 8 0 8 C0 5.36 0 2.72 0 0 Z " fill="#EEEEEE" transform="translate(160,8)"/>
<path d="M0 0 C2.64 0 5.28 0 8 0 C8 2.64 8 5.28 8 8 C5.36 8 2.72 8 0 8 C0 5.36 0 2.72 0 0 Z " fill="#FEFEFE" transform="translate(152,8)"/>
<path d="M0 0 C2.64 0 5.28 0 8 0 C8 2.64 8 5.28 8 8 C5.36 8 2.72 8 0 8 C0 5.36 0 2.72 0 0 Z " fill="#EEEEEE" transform="translate(144,8)"/>
<path d="M0 0 C2.64 0 5.28 0 8 0 C8 2.64 8 5.28 8 8 C5.36 8 2.72 8 0 8 C0 5.36 0 2.72 0 0 Z " fill="#FDFDFD" transform="translate(136,8)"/>
<path d="M0 0 C2.64 0 5.28 0 8 0 C8 2.64 8 5.28 8 8 C5.36 8 2.72 8 0 8 C0 5.36 0 2.72 0 0 Z " fill="#EFEFEF" transform="translate(128,8)"/>
<path d="M0 0 C2.64 0 5.28 0 8 0 C8 2.64 8 5.28 8 8 C5.36 8 2.72 8 0 8 C0 5.36 0 2.72 0 0 Z " fill="#FDFDFD" transform="translate(120,8)"/>
<path d="M0 0 C2.64 0 5.28 0 8 0 C8 2.64 8 5.28 8 8 C5.36 8 2.72 8 0 8 C0 5.36 0 2.72 0 0 Z " fill="#EEEEEE" transform="translate(112,8)"/>
<path d="M0 0 C2.64 0 5.28 0 8 0 C8 2.64 8 5.28 8 8 C5.36 8 2.72 8 0 8 C0 5.36 0 2.72 0 0 Z " fill="#FEFDFD" transform="translate(104,8)"/>
<path d="M0 0 C2.64 0 5.28 0 8 0 C8 2.64 8 5.28 8 8 C5.36 8 2.72 8 0 8 C0 5.36 0 2.72 0 0 Z " fill="#FDFDFD" transform="translate(72,8)"/>
<path d="M0 0 C2.64 0 5.28 0 8 0 C8 2.64 8 5.28 8 8 C5.36 8 2.72 8 0 8 C0 5.36 0 2.72 0 0 Z " fill="#EEEEEE" transform="translate(64,8)"/>
<path d="M0 0 C2.64 0 5.28 0 8 0 C8 2.64 8 5.28 8 8 C5.36 8 2.72 8 0 8 C0 5.36 0 2.72 0 0 Z " fill="#FEFEFE" transform="translate(56,8)"/>
<path d="M0 0 C2.64 0 5.28 0 8 0 C8 2.64 8 5.28 8 8 C5.36 8 2.72 8 0 8 C0 5.36 0 2.72 0 0 Z " fill="#EEEEEE" transform="translate(48,8)"/>
<path d="M0 0 C2.64 0 5.28 0 8 0 C8 2.64 8 5.28 8 8 C5.36 8 2.72 8 0 8 C0 5.36 0 2.72 0 0 Z " fill="#FDFDFD" transform="translate(40,8)"/>
<path d="M0 0 C2.64 0 5.28 0 8 0 C8 2.64 8 5.28 8 8 C5.36 8 2.72 8 0 8 C0 5.36 0 2.72 0 0 Z " fill="#EFEFEF" transform="translate(32,8)"/>
<path d="M0 0 C2.64 0 5.28 0 8 0 C8 2.64 8 5.28 8 8 C5.36 8 2.72 8 0 8 C0 5.36 0 2.72 0 0 Z " fill="#FDFDFD" transform="translate(24,8)"/>
<path d="M0 0 C2.64 0 5.28 0 8 0 C8 2.64 8 5.28 8 8 C5.36 8 2.72 8 0 8 C0 5.36 0 2.72 0 0 Z " fill="#EEEEEE" transform="translate(16,8)"/>
<path d="M0 0 C2.64 0 5.28 0 8 0 C8 2.64 8 5.28 8 8 C5.36 8 2.72 8 0 8 C0 5.36 0 2.72 0 0 Z " fill="#FEFEFE" transform="translate(8,8)"/>
<path d="M0 0 C2.64 0 5.28 0 8 0 C8 2.64 8 5.28 8 8 C5.36 8 2.72 8 0 8 C0 5.36 0 2.72 0 0 Z " fill="#EEEEEE" transform="translate(0,8)"/>
<path d="M0 0 C2.64 0 5.28 0 8 0 C8 2.64 8 5.28 8 8 C5.36 8 2.72 8 0 8 C0 5.36 0 2.72 0 0 Z " fill="#EEEEEE" transform="translate(184,0)"/>
<path d="M0 0 C2.64 0 5.28 0 8 0 C8 2.64 8 5.28 8 8 C5.36 8 2.72 8 0 8 C0 5.36 0 2.72 0 0 Z " fill="#FEFEFE" transform="translate(176,0)"/>
<path d="M0 0 C2.64 0 5.28 0 8 0 C8 2.64 8 5.28 8 8 C5.36 8 2.72 8 0 8 C0 5.36 0 2.72 0 0 Z " fill="#EEEEEE" transform="translate(168,0)"/>
<path d="M0 0 C2.64 0 5.28 0 8 0 C8 2.64 8 5.28 8 8 C5.36 8 2.72 8 0 8 C0 5.36 0 2.72 0 0 Z " fill="#FEFEFE" transform="translate(160,0)"/>
<path d="M0 0 C2.64 0 5.28 0 8 0 C8 2.64 8 5.28 8 8 C5.36 8 2.72 8 0 8 C0 5.36 0 2.72 0 0 Z " fill="#EEEEEE" transform="translate(152,0)"/>
<path d="M0 0 C2.64 0 5.28 0 8 0 C8 2.64 8 5.28 8 8 C5.36 8 2.72 8 0 8 C0 5.36 0 2.72 0 0 Z " fill="#FEFEFE" transform="translate(144,0)"/>
<path d="M0 0 C2.64 0 5.28 0 8 0 C8 2.64 8 5.28 8 8 C5.36 8 2.72 8 0 8 C0 5.36 0 2.72 0 0 Z " fill="#EEEEEE" transform="translate(136,0)"/>
<path d="M0 0 C2.64 0 5.28 0 8 0 C8 2.64 8 5.28 8 8 C5.36 8 2.72 8 0 8 C0 5.36 0 2.72 0 0 Z " fill="#FEFEFE" transform="translate(128,0)"/>
<path d="M0 0 C2.64 0 5.28 0 8 0 C8 2.64 8 5.28 8 8 C5.36 8 2.72 8 0 8 C0 5.36 0 2.72 0 0 Z " fill="#EEEEEE" transform="translate(120,0)"/>
<path d="M0 0 C2.64 0 5.28 0 8 0 C8 2.64 8 5.28 8 8 C5.36 8 2.72 8 0 8 C0 5.36 0 2.72 0 0 Z " fill="#FEFEFE" transform="translate(112,0)"/>
<path d="M0 0 C2.64 0 5.28 0 8 0 C8 2.64 8 5.28 8 8 C5.36 8 2.72 8 0 8 C0 5.36 0 2.72 0 0 Z " fill="#EEEEEE" transform="translate(104,0)"/>
<path d="M0 0 C2.64 0 5.28 0 8 0 C8 2.64 8 5.28 8 8 C5.36 8 2.72 8 0 8 C0 5.36 0 2.72 0 0 Z " fill="#FEFEFE" transform="translate(80,0)"/>
<path d="M0 0 C2.64 0 5.28 0 8 0 C8 2.64 8 5.28 8 8 C5.36 8 2.72 8 0 8 C0 5.36 0 2.72 0 0 Z " fill="#EEEEEE" transform="translate(72,0)"/>
<path d="M0 0 C2.64 0 5.28 0 8 0 C8 2.64 8 5.28 8 8 C5.36 8 2.72 8 0 8 C0 5.36 0 2.72 0 0 Z " fill="#FEFEFE" transform="translate(64,0)"/>
<path d="M0 0 C2.64 0 5.28 0 8 0 C8 2.64 8 5.28 8 8 C5.36 8 2.72 8 0 8 C0 5.36 0 2.72 0 0 Z " fill="#EEEEEE" transform="translate(56,0)"/>
<path d="M0 0 C2.64 0 5.28 0 8 0 C8 2.64 8 5.28 8 8 C5.36 8 2.72 8 0 8 C0 5.36 0 2.72 0 0 Z " fill="#FEFEFE" transform="translate(48,0)"/>
<path d="M0 0 C2.64 0 5.28 0 8 0 C8 2.64 8 5.28 8 8 C5.36 8 2.72 8 0 8 C0 5.36 0 2.72 0 0 Z " fill="#EEEEEE" transform="translate(40,0)"/>
<path d="M0 0 C2.64 0 5.28 0 8 0 C8 2.64 8 5.28 8 8 C5.36 8 2.72 8 0 8 C0 5.36 0 2.72 0 0 Z " fill="#FEFEFE" transform="translate(32,0)"/>
<path d="M0 0 C2.64 0 5.28 0 8 0 C8 2.64 8 5.28 8 8 C5.36 8 2.72 8 0 8 C0 5.36 0 2.72 0 0 Z " fill="#EEEEEE" transform="translate(24,0)"/>
<path d="M0 0 C2.64 0 5.28 0 8 0 C8 2.64 8 5.28 8 8 C5.36 8 2.72 8 0 8 C0 5.36 0 2.72 0 0 Z " fill="#FEFEFE" transform="translate(16,0)"/>
<path d="M0 0 C2.64 0 5.28 0 8 0 C8 2.64 8 5.28 8 8 C5.36 8 2.72 8 0 8 C0 5.36 0 2.72 0 0 Z " fill="#FEFEFE" transform="translate(0,0)"/>
<path d="M0 0 C2.64 0 5.28 0 8 0 C8.04241723 2.33294775 8.04092937 4.66702567 8 7 C7 8 7 8 3.4375 8.0625 C2.303125 8.041875 1.16875 8.02125 0 8 C0 5.36 0 2.72 0 0 Z " fill="#FDFDFD" transform="translate(72,24)"/>
<path d="M0 0 C1.65 0 3.3 0 5 0 C5 5.28 5 10.56 5 16 C4.34 16 3.68 16 3 16 C-0.6784434 10.76529209 0 6.16998813 0 0 Z " fill="#F7F7F7" transform="translate(116,168)"/>
<path d="M0 0 C2.31 0 4.62 0 7 0 C8.35439668 2.70879335 8.06501451 5.00933268 8 8 C5.36 8 2.72 8 0 8 C0 5.36 0 2.72 0 0 Z " fill="#FDF8F8" transform="translate(96,112)"/>
<path d="M0 0 C2.64 0 5.28 0 8 0 C8 2.64 8 5.28 8 8 C6.02 8.33 4.04 8.66 2 9 C-0.29013653 5.5647952 -0.17842973 4.014669 0 0 Z " fill="#EFEDED" transform="translate(152,96)"/>
<path d="M0 0 C1.98 0 3.96 0 6 0 C6.02689216 1.47906892 6.04634621 2.95827483 6.0625 4.4375 C6.07410156 5.26121094 6.08570312 6.08492187 6.09765625 6.93359375 C6 9 6 9 5 10 C3.33382885 10.04063832 1.66611905 10.042721 0 10 C-1.231394 6.30581799 -0.64432764 3.7943739 0 0 Z " fill="#EAEAEA" transform="translate(88,176)"/>
<path d="M0 0 C2.64 0 5.28 0 8 0 C8 2.64 8 5.28 8 8 C5.125 8.125 5.125 8.125 2 8 C0 6 0 6 -0.125 2.875 C-0.08375 1.92625 -0.0425 0.9775 0 0 Z " fill="#FBFBFB" transform="translate(112,160)"/>
<path d="M0 0 C0.94875 0.04125 1.8975 0.0825 2.875 0.125 C2.875 2.765 2.875 5.405 2.875 8.125 C0.235 8.125 -2.405 8.125 -5.125 8.125 C-5.25 5.25 -5.25 5.25 -5.125 2.125 C-3.125 0.125 -3.125 0.125 0 0 Z " fill="#EEEEEE" transform="translate(77.125,143.875)"/>
<path d="M0 0 C0.33 0 0.66 0 1 0 C1 1.65 1 3.3 1 5 C2.65 5 4.3 5 6 5 C7.125 10.75 7.125 10.75 6 13 C4.35 13 2.7 13 1 13 C1 14.65 1 16.3 1 18 C0.67 18 0.34 18 0 18 C0 12.06 0 6.12 0 0 Z " fill="#D3D3D3" transform="translate(58,171)"/>
<path d="M0 0 C2.64 0 5.28 0 8 0 C8.1875 2.875 8.1875 2.875 8 6 C4.77208445 8.1519437 3.71599191 8.20086443 0 8 C0 5.36 0 2.72 0 0 Z " fill="#FCFCFC" transform="translate(128,160)"/>
<path d="M0 0 C0 2.64 0 5.28 0 8 C-2.64 8 -5.28 8 -8 8 C-8.1875 5.125 -8.1875 5.125 -8 2 C-4.77208445 -0.1519437 -3.71599191 -0.20086443 0 0 Z " fill="#FEFDFD" transform="translate(88,128)"/>
<path d="M0 0 C2.64 0 5.28 0 8 0 C8.33 0.66 8.66 1.32 9 2 C8.22265625 3.7265625 8.22265625 3.7265625 7.0625 5.625 C6.381875 6.73875 5.70125 7.8525 5 9 C3.35 8.67 1.7 8.34 0 8 C0 5.36 0 2.72 0 0 Z " fill="#EFE9E9" transform="translate(24,112)"/>
<path d="M0 0 C2.31 0 4.62 0 7 0 C6.41892368 3.7602985 5.34800504 6.53035032 3.4375 9.8125 C2.98246094 10.60269531 2.52742188 11.39289062 2.05859375 12.20703125 C1.70925781 12.79871094 1.35992187 13.39039063 1 14 C0.67 14 0.34 14 0 14 C0 9.38 0 4.76 0 0 Z " fill="#FAF3F3" transform="translate(80,16)"/>
<path d="M0 0 C2.64 0 5.28 0 8 0 C8.33 2.31 8.66 4.62 9 7 C5.7 7 2.4 7 -1 7 C-0.67 4.69 -0.34 2.38 0 0 Z " fill="#EAEAEA" transform="translate(104,160)"/>
<path d="M0 0 C2.64 0 5.28 0 8 0 C8 1.98 8 3.96 8 6 C4.91190305 7.76462683 3.76687864 8 0 8 C0 5.36 0 2.72 0 0 Z " fill="#FCFCFC" transform="translate(64,160)"/>
<path d="M0 0 C2.64 0 5.28 0 8 0 C8 2.31 8 4.62 8 7 C5.36 7 2.72 7 0 7 C0 4.69 0 2.38 0 0 Z " fill="#FEFEFE" transform="translate(152,168)"/>
<path d="M0 0 C0.66 0.33 1.32 0.66 2 1 C2.1875 3.375 2.1875 3.375 2 6 C-1.47042703 8.31361802 -2.91834173 8.51020728 -7 8 C-8.875 6.1875 -8.875 6.1875 -10 4 C-10 3.01 -10 2.02 -10 1 C-9.01 1 -8.02 1 -7 1 C-6.67 1.66 -6.34 2.32 -6 3 C-4.35 3 -2.7 3 -1 3 C-0.67 2.01 -0.34 1.02 0 0 Z " fill="#171717" transform="translate(140,182)"/>
<path d="M0 0 C2.64 0 5.28 0 8 0 C8 1.98 8 3.96 8 6 C5.09399739 7.25664978 3.20395416 8 0 8 C0 5.36 0 2.72 0 0 Z " fill="#FDFDFD" transform="translate(16,160)"/>
<path d="M0 0 C0.66 1.32 1.32 2.64 2 4 C1.34 4 0.68 4 0 4 C0.3609375 4.55429688 0.721875 5.10859375 1.09375 5.6796875 C1.78984375 6.76636719 1.78984375 6.76636719 2.5 7.875 C2.9640625 8.59429687 3.428125 9.31359375 3.90625 10.0546875 C5 12 5 12 5 14 C3.02 14 1.04 14 -1 14 C-1.33 12.35 -1.66 10.7 -2 9 C-2.99 9.66 -3.98 10.32 -5 11 C-4.01 8.03 -3.02 5.06 -2 2 C-1.34 2 -0.68 2 0 2 C0 1.34 0 0.68 0 0 Z " fill="#EFDDDD" transform="translate(97,98)"/>
<path d="M0 0 C0.33 1.32 0.66 2.64 1 4 C2.32 4 3.64 4 5 4 C5 5.98 5 7.96 5 10 C2.03 9.505 2.03 9.505 -1 9 C-1 11.64 -1 14.28 -1 17 C-1.33 17 -1.66 17 -2 17 C-2 11.72 -2 6.44 -2 1 C-1.34 0.67 -0.68 0.34 0 0 Z " fill="#EBEBEB" transform="translate(49,167)"/>
<path d="M0 0 C2.64 0 5.28 0 8 0 C8 2.64 8 5.28 8 8 C7.01 8 6.02 8 5 8 C5 7.34 5 6.68 5 6 C3.35 6 1.7 6 0 6 C0 4.02 0 2.04 0 0 Z " fill="#FDFDFD" transform="translate(160,160)"/>
<path d="M0 0 C0 2.64 0 5.28 0 8 C-2.64 8 -5.28 8 -8 8 C-7.63487253 5.2980567 -7.30130763 3.41609148 -5.6875 1.1875 C-4 0 -4 0 0 0 Z " fill="#FEFEFE" transform="translate(128,56)"/>
<path d="M0 0 C0.33 0 0.66 0 1 0 C1 5.61 1 11.22 1 17 C1.66 17 2.32 17 3 17 C3 19.64 3 22.28 3 25 C0.36 25 -2.28 25 -5 25 C-5 24.34 -5 23.68 -5 23 C-3.35 23 -1.7 23 0 23 C0 15.41 0 7.82 0 0 Z " fill="#C6C6C6" transform="translate(37,167)"/>
<path d="M0 0 C2.64 0 5.28 0 8 0 C8 1.98 8 3.96 8 6 C5.36 6.66 2.72 7.32 0 8 C0 5.36 0 2.72 0 0 Z " fill="#FDFDFD" transform="translate(48,160)"/>
<path d="M0 0 C4.42857143 5.14285714 4.42857143 5.14285714 5 9 C2.36 9 -0.28 9 -3 9 C-3 6.36 -3 3.72 -3 1 C-2.01 0.67 -1.02 0.34 0 0 Z " fill="#EFE0E0" transform="translate(115,135)"/>
<path d="M0 0 C2.67927341 4.01891012 2.15601248 6.24161923 2 11 C-0.64 11 -3.28 11 -6 11 C-6 10.34 -6 9.68 -6 9 C-8.97 9 -11.94 9 -15 9 C-15 8.67 -15 8.34 -15 8 C-14.15695313 7.93941406 -13.31390625 7.87882813 -12.4453125 7.81640625 C-11.34960938 7.73261719 -10.25390625 7.64882812 -9.125 7.5625 C-8.03445312 7.48128906 -6.94390625 7.40007812 -5.8203125 7.31640625 C-3.05271029 7.16998297 -3.05271029 7.16998297 -1 6 C-0.34227572 2.97065509 -0.34227572 2.97065509 0 0 Z " fill="#D0D0D0" transform="translate(118,181)"/>
<path d="M0 0 C3.625 0.25 3.625 0.25 5.5625 1.5 C6.625 3.25 6.625 3.25 6.625 7.25 C5.305 7.25 3.985 7.25 2.625 7.25 C2.295 6.26 1.965 5.27 1.625 4.25 C-0.685 4.58 -2.995 4.91 -5.375 5.25 C-4.26078372 0.31561361 -4.26078372 0.31561361 0 0 Z " fill="#171717" transform="translate(136.375,166.75)"/>
<path d="M0 0 C2.64 0 5.28 0 8 0 C8 2.64 8 5.28 8 8 C6.68 8.33 5.36 8.66 4 9 C0 2.25 0 2.25 0 0 Z " fill="#EFE8E8" transform="translate(168,128)"/>
<path d="M0 0 C0.66 0 1.32 0 2 0 C2 3.3 2 6.6 2 10 C-0.64 10.66 -3.28 11.32 -6 12 C-4.43358249 7.69235185 -2.31663844 3.93828536 0 0 Z " fill="#F1DEDE" transform="translate(86,118)"/>
<path d="M0 0 C1.98 0 3.96 0 6 0 C6 2.64 6 5.28 6 8 C5.236875 8.28875 4.47375 8.5775 3.6875 8.875 C0.84970692 9.96269013 0.84970692 9.96269013 -2 12 C-1 9 0 6 1 3 C0.67 2.01 0.34 1.02 0 0 Z " fill="#F1E1E1" transform="translate(122,48)"/>
<path d="M0 0 C1.65 0 3.3 0 5 0 C5 2.64 5 5.28 5 8 C2.36 8 -0.28 8 -3 8 C-3 7.34 -3 6.68 -3 6 C-2.34 5.67 -1.68 5.34 -1 5 C-0.34444881 2.47266765 -0.34444881 2.47266765 0 0 Z " fill="#FCFCFC" transform="translate(59,184)"/>
<path d="M0 0 C1.98 0.495 1.98 0.495 4 1 C4 1.99 4 2.98 4 4 C5.32 4.33 6.64 4.66 8 5 C8.33 6.32 8.66 7.64 9 9 C5.60406522 9 4.93380119 8.47834052 2.3125 6.5 C1.68988281 6.0359375 1.06726563 5.571875 0.42578125 5.09375 C-0.04472656 4.7328125 -0.51523438 4.371875 -1 4 C-0.67 2.68 -0.34 1.36 0 0 Z " fill="#E3E3E3" transform="translate(135,170)"/>
<path d="M0 0 C0.99 0 1.98 0 3 0 C3 5.28 3 10.56 3 16 C2.34 16 1.68 16 1 16 C0.20046862 12.71303767 -0.09658936 11.28976808 1 8 C0.34 7.67 -0.32 7.34 -1 7 C-0.67 4.69 -0.34 2.38 0 0 Z " fill="#EFEFEF" transform="translate(143,168)"/>
<path d="M0 0 C2.31 0 4.62 0 7 0 C6.5359375 1.1446875 6.5359375 1.1446875 6.0625 2.3125 C5.32106407 4.18789677 4.63771783 6.08684652 4 8 C2.68 8 1.36 8 0 8 C0 5.36 0 2.72 0 0 Z " fill="#EFE9E9" transform="translate(8,144)"/>
<path d="M0 0 C1.65 0 3.3 0 5 0 C5 2.64 5 5.28 5 8 C3.35 8 1.7 8 0 8 C0 5.36 0 2.72 0 0 Z " fill="#FEFEFE" transform="translate(48,176)"/>
<path d="M0 0 C2.64 0 5.28 0 8 0 C8 1.65 8 3.3 8 5 C5.36 5 2.72 5 0 5 C0 3.35 0 1.7 0 0 Z " fill="#FEFEFE" transform="translate(144,96)"/>
<path d="M0 0 C2.64 0 5.28 0 8 0 C8 1.65 8 3.3 8 5 C5.36 5 2.72 5 0 5 C0 3.35 0 1.7 0 0 Z " fill="#EEEEEE" transform="translate(136,96)"/>
<path d="M0 0 C2.64 0 5.28 0 8 0 C8 1.65 8 3.3 8 5 C5.36 5 2.72 5 0 5 C0 3.35 0 1.7 0 0 Z " fill="#FEFEFE" transform="translate(128,96)"/>
<path d="M0 0 C2.64 0 5.28 0 8 0 C8 1.65 8 3.3 8 5 C5.36 5 2.72 5 0 5 C0 3.35 0 1.7 0 0 Z " fill="#EEEEEE" transform="translate(120,96)"/>
<path d="M0 0 C2.64 0 5.28 0 8 0 C8 1.65 8 3.3 8 5 C5.36 5 2.72 5 0 5 C0 3.35 0 1.7 0 0 Z " fill="#FEFEFE" transform="translate(112,96)"/>
<path d="M0 0 C2.64 0 5.28 0 8 0 C8 1.65 8 3.3 8 5 C5.36 5 2.72 5 0 5 C0 3.35 0 1.7 0 0 Z " fill="#EEEEEE" transform="translate(104,96)"/>
<path d="M0 0 C2.64 0 5.28 0 8 0 C8 1.65 8 3.3 8 5 C5.36 5 2.72 5 0 5 C0 3.35 0 1.7 0 0 Z " fill="#FEFEFE" transform="translate(80,96)"/>
<path d="M0 0 C2.64 0 5.28 0 8 0 C8 1.65 8 3.3 8 5 C5.36 5 2.72 5 0 5 C0 3.35 0 1.7 0 0 Z " fill="#EEEEEE" transform="translate(72,96)"/>
<path d="M0 0 C2.64 0 5.28 0 8 0 C8 1.65 8 3.3 8 5 C5.36 5 2.72 5 0 5 C0 3.35 0 1.7 0 0 Z " fill="#FEFEFE" transform="translate(64,96)"/>
<path d="M0 0 C2.64 0 5.28 0 8 0 C8 1.65 8 3.3 8 5 C5.36 5 2.72 5 0 5 C0 3.35 0 1.7 0 0 Z " fill="#EEEEEE" transform="translate(56,96)"/>
<path d="M0 0 C2.64 0 5.28 0 8 0 C8 1.65 8 3.3 8 5 C5.36 5 2.72 5 0 5 C0 3.35 0 1.7 0 0 Z " fill="#FEFEFE" transform="translate(48,96)"/>
<path d="M0 0 C2.64 0 5.28 0 8 0 C8 1.65 8 3.3 8 5 C5.36 5 2.72 5 0 5 C0 3.35 0 1.7 0 0 Z " fill="#EEEEEE" transform="translate(40,96)"/>
<path d="M0 0 C1.98 0 3.96 0 6 0 C6 2.64 6 5.28 6 8 C5.01 8 4.02 8 3 8 C0.89229241 5.11165997 0 3.61537605 0 0 Z " fill="#FDFAFA" transform="translate(178,144)"/>
<path d="M0 0 C1.65 0 3.3 0 5 0 C5 2.64 5 5.28 5 8 C3.35 8 1.7 8 0 8 C0 5.36 0 2.72 0 0 Z " fill="#FDFAFA" transform="translate(64,48)"/>
<path d="M0 0 C2.64 0 5.28 0 8 0 C8 1.32 8 2.64 8 4 C5.36 4 2.72 4 0 4 C0 2.68 0 1.36 0 0 Z " fill="#EFEFEF" transform="translate(152,180)"/>
<path d="M0 0 C1.98 0 3.96 0 6 0 C4.02 4.455 4.02 4.455 2 9 C0 7 0 7 -0.125 3.375 C-0.08375 2.26125 -0.0425 1.1475 0 0 Z " fill="#EFE4E4" transform="translate(32,104)"/>
<path d="M0 0 C1.32 0 2.64 0 4 0 C4.35233161 5.37305699 4.35233161 5.37305699 4 8 C2 10 2 10 0 11 C0 7.33333333 0 3.66666667 0 0 Z " fill="#DADADA" transform="translate(116,168)"/>
<path d="M0 0 C0.556875 0.639375 1.11375 1.27875 1.6875 1.9375 C4.22066561 4.19680987 5.68341424 4.63149047 9 5 C8.67 5.66 8.34 6.32 8 7 C5.36 7 2.72 7 0 7 C0 4.69 0 2.38 0 0 Z " fill="#E8E8E8" transform="translate(64,185)"/>
<path d="M0 0 C2.31 0 4.62 0 7 0 C6.67 3.3 6.34 6.6 6 10 C5.67 10 5.34 10 5 10 C4.731875 8.906875 4.46375 7.81375 4.1875 6.6875 C3.12336261 3.38307337 2.65345336 2.05039578 0 0 Z " fill="#D3D3D3" transform="translate(73,176)"/>
<path d="M0 0 C1.98 0 3.96 0 6 0 C6 1.32 6 2.64 6 4 C4.02 4.33 2.04 4.66 0 5 C0 3.35 0 1.7 0 0 Z " fill="#F0F0F0" transform="translate(107,171)"/>
<path d="M0 0 C0 1.98 0 3.96 0 6 C-1.65 6 -3.3 6 -5 6 C-5 4.35 -5 2.7 -5 1 C-1.125 0 -1.125 0 0 0 Z " fill="#FBFBFB" transform="translate(64,170)"/>
<path d="M0 0 C0.66 0 1.32 0 2 0 C2 1.65 2 3.3 2 5 C-0.64 5 -3.28 5 -6 5 C-5.195625 4.360625 -4.39125 3.72125 -3.5625 3.0625 C-1.7249496 1.59396498 -1.7249496 1.59396498 0 0 Z " fill="#F2F2F2" transform="translate(142,187)"/>
<path d="M0 0 C0.99 0 1.98 0 3 0 C3 2.64 3 5.28 3 8 C2.01 8 1.02 8 0 8 C0 5.36 0 2.72 0 0 Z " fill="#FEFEFE" transform="translate(165,176)"/>
<path d="M0 0 C0.99 0 1.98 0 3 0 C3 2.64 3 5.28 3 8 C2.01 8 1.02 8 0 8 C0 5.36 0 2.72 0 0 Z " fill="#FDFDFD" transform="translate(16,176)"/>
<path d="M0 0 C0.99 0 1.98 0 3 0 C3 2.64 3 5.28 3 8 C2.01 8 1.02 8 0 8 C0 5.36 0 2.72 0 0 Z " fill="#F0F0F0" transform="translate(165,168)"/>
<path d="M0 0 C0.99 0 1.98 0 3 0 C3 2.64 3 5.28 3 8 C2.01 8 1.02 8 0 8 C0 5.36 0 2.72 0 0 Z " fill="#F0F0F0" transform="translate(99,168)"/>
<path d="M0 0 C0.99 0 1.98 0 3 0 C3 2.64 3 5.28 3 8 C2.01 8 1.02 8 0 8 C0 5.36 0 2.72 0 0 Z " fill="#EFEFEF" transform="translate(16,168)"/>
<path d="M0 0 C0.33 0 0.66 0 1 0 C1 2.64 1 5.28 1 8 C-0.65 8.33 -2.3 8.66 -4 9 C-2.94124926 5.59687262 -1.99097846 2.98646769 0 0 Z " fill="#F0D4D4" transform="translate(103,88)"/>
<path d="M0 0 C1.65 0 3.3 0 5 0 C5 2.64 5 5.28 5 8 C2.74754119 5.31158141 1.11786042 3.35358125 0 0 Z " fill="#F0E2E2" transform="translate(163,120)"/>
<path d="M0 0 C0.66 1.32 1.32 2.64 2 4 C1.34 4 0.68 4 0 4 C-0.4021875 5.175625 -0.4021875 5.175625 -0.8125 6.375 C-2 9 -2 9 -5 11 C-4.01 8.03 -3.02 5.06 -2 2 C-1.34 2 -0.68 2 0 2 C0 1.34 0 0.68 0 0 Z " fill="#F7D1D1" transform="translate(97,98)"/>
<path d="M0 0 C1.32 0.33 2.64 0.66 4 1 C3.67 1.33 3.34 1.66 3 2 C2.95907063 4.33297433 2.95758277 6.66705225 3 9 C2.01 8.67 1.02 8.34 0 8 C0 5.36 0 2.72 0 0 Z " fill="#E0E0E0" transform="translate(128,168)"/>
<path d="M0 0 C0 1.98 0 3.96 0 6 C-1.65 6 -3.3 6 -5 6 C-5 5.01 -5 4.02 -5 3 C-1.55555556 0 -1.55555556 0 0 0 Z " fill="#FDF6F7" transform="translate(96,106)"/>
<path d="M0 0 C0.66 0 1.32 0 2 0 C2 2.64 2 5.28 2 8 C1.34 8 0.68 8 0 8 C-0.33 8.66 -0.66 9.32 -1 10 C-0.67 6.7 -0.34 3.4 0 0 Z " fill="#FCFCFC" transform="translate(80,176)"/>
<path d="M0 0 C2.15377564 2.62198774 3.40072174 4.64404172 4 8 C2.68 8 1.36 8 0 8 C0 5.36 0 2.72 0 0 Z " fill="#F0DEDE" transform="translate(120,144)"/>
<path d="M0 0 C1.32 0 2.64 0 4 0 C3.43628586 3.26954202 2.50037734 4.82575883 0 7 C0 4.69 0 2.38 0 0 Z " fill="#FCF6F6" transform="translate(24,120)"/>
<path d="M0 0 C0.99 0.33 1.98 0.66 3 1 C3.33 2.65 3.66 4.3 4 6 C2.68 6 1.36 6 0 6 C0 4.02 0 2.04 0 0 Z " fill="#FBEEEF" transform="translate(88,90)"/>
<path d="M0 0 C0.66 0 1.32 0 2 0 C2 2.64 2 5.28 2 8 C1.34 8 0.68 8 0 8 C-0.79953138 4.71303767 -1.09658936 3.28976808 0 0 Z " fill="#FBFBFB" transform="translate(144,176)"/>
<path d="M0 0 C1.32 0 2.64 0 4 0 C3.34 1.98 2.68 3.96 2 6 C1.34 6 0.68 6 0 6 C0 4.02 0 2.04 0 0 Z " fill="#FCF3F3" transform="translate(88,8)"/>
<path d="M0 0 C0.33 0 0.66 0 1 0 C1.36923077 5.53846154 1.36923077 5.53846154 -0.5 7.875 C-1.2425 8.431875 -1.2425 8.431875 -2 9 C-2.66 8.67 -3.32 8.34 -4 8 C-2.68 5.36 -1.36 2.72 0 0 Z " fill="#C1C1C1" transform="translate(32,177)"/>
<path d="M0 0 C0 2.31 0 4.62 0 7 C-2.2477975 4.94766315 -3.0022242 3.99332739 -4 1 C-2 0 -2 0 0 0 Z " fill="#F0E0E0" transform="translate(104,8)"/>
</svg>
